<svg id="my-svg" width="100%" xmlns="http://www.w3.org/2000/svg" xmlns:xlink="http://www.w3.org/1999/xlink" class="flowchart" style="max-width: 262.5px; background-color: transparent;" viewBox="0 0 262.5 168" role="graphics-document document" aria-roledescription="flowchart-v2"><style>#my-svg{font-family:"trebuchet ms",verdana,arial,sans-serif;font-size:16px;fill:#333;}@keyframes edge-animation-frame{from{stroke-dashoffset:0;}}@keyframes dash{to{stroke-dashoffset:0;}}#my-svg .edge-animation-slow{stroke-dasharray:9,5!important;stroke-dashoffset:900;animation:dash 50s linear infinite;stroke-linecap:round;}#my-svg .edge-animation-fast{stroke-dasharray:9,5!important;stroke-dashoffset:900;animation:dash 20s linear infinite;stroke-linecap:round;}#my-svg .error-icon{fill:#552222;}#my-svg .error-text{fill:#552222;stroke:#552222;}#my-svg .edge-thickness-normal{stroke-width:1px;}#my-svg .edge-thickness-thick{stroke-width:3.5px;}#my-svg .edge-pattern-solid{stroke-dasharray:0;}#my-svg .edge-thickness-invisible{stroke-width:0;fill:none;}#my-svg .edge-pattern-dashed{stroke-dasharray:3;}#my-svg .edge-pattern-dotted{stroke-dasharray:2;}#my-svg .marker{fill:#333333;stroke:#333333;}#my-svg .marker.cross{stroke:#333333;}#my-svg svg{font-family:"trebuchet ms",verdana,arial,sans-serif;font-size:16px;}#my-svg p{margin:0;}#my-svg .label{font-family:"trebuchet ms",verdana,arial,sans-serif;color:#333;}#my-svg .cluster-label text{fill:#333;}#my-svg .cluster-label span{color:#333;}#my-svg .cluster-label span p{background-color:transparent;}#my-svg .label text,#my-svg span{fill:#333;color:#333;}#my-svg .node rect,#my-svg .node circle,#my-svg .node ellipse,#my-svg .node polygon,#my-svg .node path{fill:#ECECFF;stroke:#9370DB;stroke-width:1px;}#my-svg .rough-node .label text,#my-svg .node .label text,#my-svg .image-shape .label,#my-svg .icon-shape .label{text-anchor:middle;}#my-svg .node .katex path{fill:#000;stroke:#000;stroke-width:1px;}#my-svg .rough-node .label,#my-svg .node .label,#my-svg .image-shape .label,#my-svg .icon-shape .label{text-align:center;}#my-svg .node.clickable{cursor:pointer;}#my-svg .root .anchor path{fill:#333333!important;stroke-width:0;stroke:#333333;}#my-svg .arrowheadPath{fill:#333333;}#my-svg .edgePath .path{stroke:#333333;stroke-width:2.0px;}#my-svg .flowchart-link{stroke:#333333;fill:none;}#my-svg .edgeLabel{background-color:rgba(232,232,232, 0.8);text-align:center;}#my-svg .edgeLabel p{background-color:rgba(232,232,232, 0.8);}#my-svg .edgeLabel rect{opacity:0.5;background-color:rgba(232,232,232, 0.8);fill:rgba(232,232,232, 0.8);}#my-svg .labelBkg{background-color:rgba(232, 232, 232, 0.5);}#my-svg .cluster rect{fill:#ffffde;stroke:#aaaa33;stroke-width:1px;}#my-svg .cluster text{fill:#333;}#my-svg .cluster span{color:#333;}#my-svg div.mermaidTooltip{position:absolute;text-align:center;max-width:200px;padding:2px;font-family:"trebuchet ms",verdana,arial,sans-serif;font-size:12px;background:hsl(80, 100%, 96.2745098039%);border:1px solid #aaaa33;border-radius:2px;pointer-events:none;z-index:100;}#my-svg .flowchartTitleText{text-anchor:middle;font-size:18px;fill:#333;}#my-svg rect.text{fill:none;stroke-width:0;}#my-svg .icon-shape,#my-svg .image-shape{background-color:rgba(232,232,232, 0.8);text-align:center;}#my-svg .icon-shape p,#my-svg .image-shape p{background-color:rgba(232,232,232, 0.8);padding:2px;}#my-svg .icon-shape .label rect,#my-svg .image-shape .label rect{opacity:0.5;background-color:rgba(232,232,232, 0.8);fill:rgba(232,232,232, 0.8);}#my-svg .label-icon{display:inline-block;height:1em;overflow:visible;vertical-align:-0.125em;}#my-svg .node .label-icon path{fill:currentColor;stroke:revert;stroke-width:revert;}#my-svg :root{--mermaid-font-family:"trebuchet ms",verdana,arial,sans-serif;}</style><g><marker id="my-svg_flowchart-v2-pointEnd" class="marker flowchart-v2" viewBox="0 0 10 10" refX="5" refY="5" markerUnits="userSpaceOnUse" markerWidth="8" markerHeight="8" orient="auto"><path d="M 0 0 L 10 5 L 0 10 z" class="arrowMarkerPath" style="stroke-width: 1; stroke-dasharray: 1, 0;"/></marker><marker id="my-svg_flowchart-v2-pointStart" class="marker flowchart-v2" viewBox="0 0 10 10" refX="4.5" refY="5" markerUnits="userSpaceOnUse" markerWidth="8" markerHeight="8" orient="auto"><path d="M 0 5 L 10 10 L 10 0 z" class="arrowMarkerPath" style="stroke-width: 1; stroke-dasharray: 1, 0;"/></marker><marker id="my-svg_flowchart-v2-circleEnd" class="marker flowchart-v2" viewBox="0 0 10 10" refX="11" refY="5" markerUnits="userSpaceOnUse" markerWidth="11" markerHeight="11" orient="auto"><circle cx="5" cy="5" r="5" class="arrowMarkerPath" style="stroke-width: 1; stroke-dasharray: 1, 0;"/></marker><marker id="my-svg_flowchart-v2-circleStart" class="marker flowchart-v2" viewBox="0 0 10 10" refX="-1" refY="5" markerUnits="userSpaceOnUse" markerWidth="11" markerHeight="11" orient="auto"><circle cx="5" cy="5" r="5" class="arrowMarkerPath" style="stroke-width: 1; stroke-dasharray: 1, 0;"/></marker><marker id="my-svg_flowchart-v2-crossEnd" class="marker cross flowchart-v2" viewBox="0 0 11 11" refX="12" refY="5.2" markerUnits="userSpaceOnUse" markerWidth="11" markerHeight="11" orient="auto"><path d="M 1,1 l 9,9 M 10,1 l -9,9" class="arrowMarkerPath" style="stroke-width: 2; stroke-dasharray: 1, 0;"/></marker><marker id="my-svg_flowchart-v2-crossStart" class="marker cross flowchart-v2" viewBox="0 0 11 11" refX="-1" refY="5.2" markerUnits="userSpaceOnUse" markerWidth="11" markerHeight="11" orient="auto"><path d="M 1,1 l 9,9 M 10,1 l -9,9" class="arrowMarkerPath" style="stroke-width: 2; stroke-dasharray: 1, 0;"/></marker><g class="root"><g class="clusters"/><g class="edgePaths"><path d="M131.75,71.5L131.667,75.583C131.583,79.667,131.417,87.833,131.404,95.5C131.391,103.167,131.531,110.334,131.601,113.917L131.672,117.501" id="L_s1_pipeline_orchestrator_ext_0" class="edge-thickness-normal edge-pattern-dotted edge-thickness-normal edge-pattern-solid flowchart-link" style=";" data-edge="true" data-et="edge" data-id="L_s1_pipeline_orchestrator_ext_0" data-points="W3sieCI6MTMxLjc1LCJ5Ijo3MS41fSx7IngiOjEzMS4yNSwieSI6OTZ9LHsieCI6MTMxLjc1LCJ5IjoxMjEuNX1d" marker-end="url(#my-svg_flowchart-v2-pointEnd)"/></g><g class="edgeLabels"><g class="edgeLabel"><g class="label" data-id="L_s1_pipeline_orchestrator_ext_0" transform="translate(0, 0)"><foreignObject width="0" height="0"><div xmlns="http://www.w3.org/1999/xhtml" class="labelBkg" style="display: table-cell; white-space: nowrap; line-height: 1.5; max-width: 200px; text-align: center;"><span class="edgeLabel"></span></div></foreignObject></g></g></g><g class="nodes"><g class="node default" id="flowchart-s1-0" transform="translate(131.25, 39.5)"><polygon points="15.75,0 230.75,0 246.5,-31.5 230.75,-63 15.75,-63 0,-31.5" class="label-container" transform="translate(-123.25,31.5)"/><g class="label" style="" transform="translate(-100, -24)"><rect/><foreignObject width="200" height="48"><div xmlns="http://www.w3.org/1999/xhtml" style="display: table; white-space: break-spaces; line-height: 1.5; max-width: 200px; text-align: center; width: 200px;"><span class="nodeLabel"><p>s1: Dispatch Orchestrator Agent</p></span></div></foreignObject></g></g><g class="node default" id="flowchart-pipeline_orchestrator_ext-1" transform="translate(131.25, 140.5)"><g class="basic label-container outer-path"><path d="M-77.53125 -19.5 C-21.052459013629054 -19.5, 35.42633197274189 -19.5, 77.53125 -19.5 C77.53125 -19.5, 77.53125 -19.5, 77.53125 -19.5 C77.88562258789152 -19.48863596085072, 78.23999517578305 -19.477271921701433, 78.7806192896239 -19.45993515863156 C79.0786850234106 -19.431181115769647, 79.3767507571973 -19.402427072907734, 80.02485465284786 -19.3399052695533 C80.3617005695045 -19.285446634027352, 80.69854648616115 -19.230987998501405, 81.25884325967675 -19.140403561325776 C81.70367615314177 -19.038873356198298, 82.14850904660679 -18.937343151070817, 82.47751438623538 -18.862249829261074 C82.89833086702222 -18.737353706674323, 83.31914734780908 -18.612457584087572, 83.6758602514606 -18.50658706670804 C84.04437472514215 -18.37097033388278, 84.41288919882368 -18.235353601057525, 84.8489565951478 -18.074876768247425 C85.25421745255436 -17.895479808309744, 85.65947830996092 -17.716082848372068, 85.99198291279238 -17.568892924097174 C86.25578019069744 -17.431270053184328, 86.51957746860249 -17.29364718227148, 87.10024226407678 -16.990714730406097 C87.45211202132292 -16.77740921574727, 87.80398177856907 -16.564103701088438, 88.1691805736057 -16.342718045390892 C88.5696840612256 -16.063344149943795, 88.9701875488455 -15.7839702544967, 89.19440534457871 -15.627565626425154 C89.57605290934579 -15.32321184959163, 89.95770047411288 -15.018858072758107, 90.17170370850187 -14.848196188198123 C90.49960393495641 -14.55040587829668, 90.82750416141097 -14.252615568395234, 91.09705973676799 -14.007812326905688 C91.40009202195998 -13.69490661303165, 91.70312430715197 -13.382000899157612, 91.96667094296865 -13.10986736009568 C92.15402603367808 -12.889789409741715, 92.34138112438751 -12.669711459387747, 92.77696390812658 -12.158051136245305 C93.04863605376467 -11.794035210931876, 93.32030819940277 -11.430019285618444, 93.52460896464063 -11.156274872382312 C93.7851156940534 -10.756066580152709, 94.04562242346617 -10.355858287923104, 94.20653387860425 -10.108655082055241 C94.43343603958945 -9.705767318890736, 94.66033820057467 -9.302879555726232, 94.8199364742735 -9.019496659696287 C95.0033517762836 -8.638630860613553, 95.18676707829368 -8.257765061530819, 95.36229614880834 -7.893275190886684 C95.50591361045707 -7.5385372839595775, 95.64953107210582 -7.18379937703247, 95.83138422997033 -6.734618561215508 C95.98678499707663 -6.26657621044115, 96.14218576418291 -5.798533859666794, 96.22527313421489 -5.548287939305138 C96.32753038305367 -5.15833673091085, 96.42978763189245 -4.768385522516563, 96.54234428754556 -4.339158212148133 C96.63715925613863 -3.852303387573447, 96.73197422473169 -3.3654485629987607, 96.78129477658177 -3.1121979531509023 C96.81701153531371 -2.835185825497791, 96.85272829404565 -2.55817369784468, 96.94114270250937 -1.872449005199798 C96.95926911027286 -1.59011557291046, 96.97739551803635 -1.3077821406211219, 97.02123121591342 -0.6250057626472757 C97.02123121591342 -0.3089292728948835, 97.02123121591342 0.0071472168575087425, 97.02123121591342 0.625005762647271 C97.0000412535803 0.9550565302150966, 96.97885129124721 1.285107297782922, 96.94114270250937 1.8724490051997846 C96.89548118031517 2.226590754450538, 96.84981965812098 2.5807325037012907, 96.78129477658177 3.1121979531508885 C96.72627626495427 3.3947063821916315, 96.67125775332674 3.6772148112323744, 96.54234428754556 4.339158212148129 C96.43673207822629 4.741903338903589, 96.33111986890701 5.144648465659051, 96.22527313421489 5.548287939305125 C96.14368026582439 5.794032658839178, 96.06208739743388 6.039777378373231, 95.83138422997033 6.734618561215495 C95.71265029264875 7.027893681964323, 95.59391635532715 7.321168802713151, 95.36229614880834 7.893275190886679 C95.16639381063214 8.300070587748094, 94.97049147245596 8.706865984609507, 94.8199364742735 9.019496659696284 C94.6590312774312 9.305200130107771, 94.49812608058889 9.590903600519258, 94.20653387860425 10.108655082055236 C93.96869597686617 10.474037967543955, 93.73085807512811 10.839420853032674, 93.52460896464065 11.156274872382301 C93.36825524454373 11.365774613195237, 93.21190152444682 11.575274354008172, 92.77696390812659 12.158051136245302 C92.51124912593083 12.470174839011865, 92.24553434373507 12.782298541778427, 91.96667094296866 13.10986736009567 C91.70060525125443 13.384602031190157, 91.4345395595402 13.659336702284644, 91.09705973676799 14.007812326905684 C90.80446053963043 14.273543175995501, 90.51186134249286 14.539274025085316, 90.1717037085019 14.848196188198111 C89.8526231386881 15.102654451534043, 89.53354256887431 15.357112714869977, 89.19440534457871 15.627565626425152 C88.80173954411747 15.90147229059838, 88.40907374365622 16.175378954771606, 88.1691805736057 16.34271804539089 C87.91705804269694 16.495556205264233, 87.66493551178817 16.648394365137577, 87.10024226407678 16.990714730406093 C86.81639365245707 17.13879836927439, 86.53254504083733 17.286882008142687, 85.99198291279238 17.56889292409717 C85.70560937004204 17.69566199650343, 85.4192358272917 17.822431068909687, 84.8489565951478 18.07487676824742 C84.53377177472457 18.19086769569971, 84.21858695430134 18.306858623152, 83.67586025146062 18.506587066708033 C83.23092347521019 18.638641966378366, 82.78598669895976 18.770696866048695, 82.47751438623541 18.86224982926107 C82.13334628826206 18.94080395171676, 81.7891781902887 19.019358074172448, 81.25884325967677 19.140403561325773 C80.8430544080353 19.207625078368462, 80.42726555639385 19.27484659541115, 80.02485465284788 19.3399052695533 C79.5628556773079 19.38447375508858, 79.1008567017679 19.429042240623865, 78.7806192896239 19.45993515863156 C78.40192987200925 19.472078991180226, 78.0232404543946 19.484222823728892, 77.53125 19.5 C77.53125 19.5, 77.53125 19.5, 77.53125 19.5 C34.73284118787772 19.5, -8.065567624244565 19.5, -77.53125 19.5 C-77.91827025728428 19.487589013638125, -78.30529051456854 19.47517802727625, -78.7806192896239 19.45993515863156 C-79.08297968868114 19.43076681457609, -79.38534008773837 19.40159847052062, -80.02485465284786 19.3399052695533 C-80.4622347207102 19.2691930521144, -80.89961478857253 19.198480834675504, -81.25884325967675 19.140403561325773 C-81.65178945572181 19.050716156292054, -82.04473565176687 18.96102875125834, -82.47751438623538 18.862249829261074 C-82.91678920207788 18.731875369719585, -83.35606401792036 18.601500910178096, -83.67586025146059 18.506587066708043 C-83.95485987009515 18.403912628006324, -84.2338594887297 18.301238189304605, -84.8489565951478 18.074876768247425 C-85.10648773525321 17.9608753719126, -85.36401887535864 17.846873975577775, -85.99198291279238 17.568892924097174 C-86.3786973933536 17.367144227290833, -86.76541187391483 17.16539553048449, -87.10024226407678 16.990714730406097 C-87.49711119902335 16.750130449780745, -87.89398013396993 16.509546169155396, -88.16918057360569 16.3427180453909 C-88.52008430759183 16.09794279093998, -88.87098804157799 15.853167536489066, -89.19440534457871 15.627565626425156 C-89.4181307097307 15.449150601298445, -89.64185607488268 15.270735576171734, -90.17170370850187 14.848196188198125 C-90.37166803187303 14.66659388047851, -90.57163235524419 14.484991572758895, -91.09705973676797 14.007812326905697 C-91.33830121698779 13.75871069228486, -91.57954269720761 13.509609057664022, -91.96667094296865 13.109867360095677 C-92.18040428251342 12.858804017694833, -92.39413762205821 12.60774067529399, -92.77696390812658 12.158051136245307 C-92.93085707588513 11.951848311404838, -93.0847502436437 11.745645486564369, -93.52460896464063 11.156274872382316 C-93.71628259722867 10.861812701150034, -93.90795622981672 10.567350529917753, -94.20653387860425 10.108655082055249 C-94.38537650182823 9.79110189474171, -94.56421912505222 9.47354870742817, -94.8199364742735 9.019496659696289 C-95.0296248315488 8.58407429920203, -95.2393131888241 8.148651938707772, -95.36229614880834 7.893275190886686 C-95.5233444443874 7.495482787149412, -95.68439273996648 7.0976903834121385, -95.83138422997033 6.73461856121551 C-95.93308306682555 6.42831786811677, -96.03478190368077 6.122017175018031, -96.22527313421489 5.5482879393051325 C-96.32339879174754 5.1740922792041735, -96.42152444928017 4.799896619103214, -96.54234428754556 4.339158212148136 C-96.60364325896049 4.024400949474695, -96.6649422303754 3.7096436868012552, -96.78129477658177 3.112197953150904 C-96.82173460036145 2.7985546656622327, -96.86217442414112 2.4849113781735612, -96.94114270250937 1.872449005199809 C-96.95730470898647 1.6207127085820536, -96.97346671546359 1.3689764119642982, -97.02123121591342 0.6250057626472781 C-97.02123121591342 0.15807127912441826, -97.02123121591342 -0.3088632043984416, -97.02123121591342 -0.6250057626472687 C-96.99546001954269 -1.0264129482565179, -96.96968882317198 -1.427820133865767, -96.94114270250937 -1.8724490051997822 C-96.88200760278134 -2.3310891611440323, -96.82287250305333 -2.789729317088282, -96.78129477658177 -3.112197953150895 C-96.69159274567627 -3.57279892331972, -96.60189071477076 -4.033399893488545, -96.54234428754556 -4.339158212148126 C-96.47539406712075 -4.594468419037046, -96.40844384669592 -4.849778625925966, -96.22527313421489 -5.548287939305123 C-96.13721071569196 -5.81351791305521, -96.04914829716903 -6.0787478868052975, -95.83138422997033 -6.734618561215485 C-95.70244478154753 -7.05310149169444, -95.57350533312473 -7.371584422173395, -95.36229614880834 -7.893275190886676 C-95.17065056054848 -8.291231355466957, -94.97900497228864 -8.689187520047238, -94.8199364742735 -9.019496659696282 C-94.61000642079269 -9.392248727374502, -94.40007636731187 -9.765000795052725, -94.20653387860425 -10.108655082055243 C-94.02783438539947 -10.383185491150595, -93.84913489219468 -10.657715900245947, -93.52460896464063 -11.156274872382308 C-93.26916586650323 -11.498545352541452, -93.01372276836584 -11.840815832700596, -92.77696390812659 -12.158051136245302 C-92.52167570966077 -12.457927180473257, -92.26638751119495 -12.757803224701213, -91.96667094296866 -13.10986736009567 C-91.70717146252605 -13.37782187895624, -91.44767198208342 -13.645776397816812, -91.09705973676799 -14.007812326905677 C-90.90179297033743 -14.185148437702388, -90.70652620390688 -14.362484548499097, -90.1717037085019 -14.848196188198107 C-89.81903536307337 -15.129439808778539, -89.46636701764486 -15.410683429358969, -89.19440534457871 -15.627565626425149 C-88.93362899768864 -15.809471917189546, -88.67285265079859 -15.991378207953945, -88.16918057360571 -16.342718045390885 C-87.78744486582087 -16.574128474778078, -87.40570915803603 -16.805538904165267, -87.10024226407678 -16.99071473040609 C-86.73866414301568 -17.17934980456183, -86.37708602195458 -17.36798487871757, -85.9919829127924 -17.56889292409717 C-85.73453545661694 -17.682857276038593, -85.4770880004415 -17.79682162798002, -84.84895659514781 -18.07487676824742 C-84.50317720603005 -18.20212677979239, -84.1573978169123 -18.32937679133736, -83.67586025146062 -18.506587066708033 C-83.34689969732622 -18.604220832425938, -83.01793914319182 -18.70185459814384, -82.47751438623541 -18.862249829261067 C-82.15160664114038 -18.936636145332216, -81.82569889604535 -19.011022461403368, -81.25884325967677 -19.140403561325773 C-80.84140302434253 -19.20789206127724, -80.4239627890083 -19.275380561228705, -80.02485465284788 -19.3399052695533 C-79.6784246452859 -19.37332495573976, -79.33199463772391 -19.406744641926228, -78.7806192896239 -19.45993515863156 C-78.44421914265307 -19.470722856581748, -78.10781899568225 -19.48151055453194, -77.53125 -19.5 C-77.53125 -19.5, -77.53125 -19.5, -77.53125 -19.5" stroke="none" stroke-width="0" fill="#ECECFF" style=""/><path d="M-77.53125 -19.5 C-31.303495848581292 -19.5, 14.924258302837416 -19.5, 77.53125 -19.5 M-77.53125 -19.5 C-37.49154699986362 -19.5, 2.548156000272755 -19.5, 77.53125 -19.5 M77.53125 -19.5 C77.53125 -19.5, 77.53125 -19.5, 77.53125 -19.5 M77.53125 -19.5 C77.53125 -19.5, 77.53125 -19.5, 77.53125 -19.5 M77.53125 -19.5 C77.9237384662815 -19.487413658818806, 78.31622693256303 -19.474827317637615, 78.7806192896239 -19.45993515863156 M77.53125 -19.5 C77.89386628366526 -19.488371601572634, 78.25648256733051 -19.47674320314527, 78.7806192896239 -19.45993515863156 M78.7806192896239 -19.45993515863156 C79.18114522096528 -19.421296903737964, 79.58167115230665 -19.38265864884437, 80.02485465284786 -19.3399052695533 M78.7806192896239 -19.45993515863156 C79.18178730044673 -19.421234963102602, 79.58295531126956 -19.382534767573645, 80.02485465284786 -19.3399052695533 M80.02485465284786 -19.3399052695533 C80.49893499083409 -19.263259637055615, 80.97301532882032 -19.186614004557935, 81.25884325967675 -19.140403561325776 M80.02485465284786 -19.3399052695533 C80.33008707536814 -19.29055765859301, 80.63531949788843 -19.24121004763272, 81.25884325967675 -19.140403561325776 M81.25884325967675 -19.140403561325776 C81.58326921125591 -19.06635545495502, 81.90769516283507 -18.99230734858426, 82.47751438623538 -18.862249829261074 M81.25884325967675 -19.140403561325776 C81.73832145809409 -19.03096579142467, 82.21779965651143 -18.921528021523567, 82.47751438623538 -18.862249829261074 M82.47751438623538 -18.862249829261074 C82.75378125917867 -18.78025527152592, 83.03004813212193 -18.698260713790763, 83.6758602514606 -18.50658706670804 M82.47751438623538 -18.862249829261074 C82.75914660978484 -18.778662863629304, 83.0407788333343 -18.695075897997537, 83.6758602514606 -18.50658706670804 M83.6758602514606 -18.50658706670804 C84.01151982195827 -18.38306124196184, 84.34717939245594 -18.25953541721564, 84.8489565951478 -18.074876768247425 M83.6758602514606 -18.50658706670804 C84.13304449418555 -18.338339039220447, 84.59022873691049 -18.170091011732854, 84.8489565951478 -18.074876768247425 M84.8489565951478 -18.074876768247425 C85.12329328779477 -17.953436052321457, 85.39762998044174 -17.83199533639549, 85.99198291279238 -17.568892924097174 M84.8489565951478 -18.074876768247425 C85.24793181878572 -17.89826227192242, 85.64690704242363 -17.721647775597418, 85.99198291279238 -17.568892924097174 M85.99198291279238 -17.568892924097174 C86.2417326997636 -17.43859862020666, 86.49148248673484 -17.308304316316146, 87.10024226407678 -16.990714730406097 M85.99198291279238 -17.568892924097174 C86.2389720681643 -17.440038839943746, 86.48596122353624 -17.311184755790315, 87.10024226407678 -16.990714730406097 M87.10024226407678 -16.990714730406097 C87.36070353252342 -16.832821578833435, 87.62116480097005 -16.67492842726077, 88.1691805736057 -16.342718045390892 M87.10024226407678 -16.990714730406097 C87.34489237283763 -16.84240639675164, 87.5895424815985 -16.694098063097186, 88.1691805736057 -16.342718045390892 M88.1691805736057 -16.342718045390892 C88.42634559415747 -16.1633308595483, 88.68351061470922 -15.983943673705706, 89.19440534457871 -15.627565626425154 M88.1691805736057 -16.342718045390892 C88.37510559558491 -16.199073664408722, 88.58103061756412 -16.055429283426548, 89.19440534457871 -15.627565626425154 M89.19440534457871 -15.627565626425154 C89.48854938574608 -15.392993581095848, 89.78269342691345 -15.15842153576654, 90.17170370850187 -14.848196188198123 M89.19440534457871 -15.627565626425154 C89.5091812235111 -15.3765402395145, 89.8239571024435 -15.125514852603843, 90.17170370850187 -14.848196188198123 M90.17170370850187 -14.848196188198123 C90.35863866873228 -14.678426803344871, 90.5455736289627 -14.508657418491618, 91.09705973676799 -14.007812326905688 M90.17170370850187 -14.848196188198123 C90.40532601783652 -14.636026588167983, 90.63894832717115 -14.42385698813784, 91.09705973676799 -14.007812326905688 M91.09705973676799 -14.007812326905688 C91.33088744466848 -13.766366020886588, 91.56471515256897 -13.524919714867487, 91.96667094296865 -13.10986736009568 M91.09705973676799 -14.007812326905688 C91.32241486276911 -13.775114657309597, 91.54776998877023 -13.542416987713509, 91.96667094296865 -13.10986736009568 M91.96667094296865 -13.10986736009568 C92.24641443437514 -12.781264737234011, 92.52615792578165 -12.452662114372343, 92.77696390812658 -12.158051136245305 M91.96667094296865 -13.10986736009568 C92.17206606007284 -12.868598568231855, 92.37746117717701 -12.62732977636803, 92.77696390812658 -12.158051136245305 M92.77696390812658 -12.158051136245305 C92.92817868276592 -11.95543711417796, 93.07939345740526 -11.752823092110612, 93.52460896464063 -11.156274872382312 M92.77696390812658 -12.158051136245305 C93.03593149272926 -11.811058165310005, 93.29489907733195 -11.464065194374706, 93.52460896464063 -11.156274872382312 M93.52460896464063 -11.156274872382312 C93.67958140245106 -10.918195591979169, 93.83455384026148 -10.680116311576027, 94.20653387860425 -10.108655082055241 M93.52460896464063 -11.156274872382312 C93.77646844314656 -10.769351079657621, 94.02832792165248 -10.382427286932932, 94.20653387860425 -10.108655082055241 M94.20653387860425 -10.108655082055241 C94.41161598276332 -9.744511039305873, 94.61669808692241 -9.380366996556507, 94.8199364742735 -9.019496659696287 M94.20653387860425 -10.108655082055241 C94.33741677650795 -9.876259243496673, 94.46829967441164 -9.643863404938106, 94.8199364742735 -9.019496659696287 M94.8199364742735 -9.019496659696287 C95.02180577156228 -8.600310744565105, 95.22367506885107 -8.181124829433925, 95.36229614880834 -7.893275190886684 M94.8199364742735 -9.019496659696287 C94.97491102539662 -8.697688688364929, 95.12988557651975 -8.375880717033573, 95.36229614880834 -7.893275190886684 M95.36229614880834 -7.893275190886684 C95.54588279106376 -7.439812635109529, 95.72946943331918 -6.986350079332373, 95.83138422997033 -6.734618561215508 M95.36229614880834 -7.893275190886684 C95.48905316538573 -7.580182909260335, 95.61581018196313 -7.267090627633986, 95.83138422997033 -6.734618561215508 M95.83138422997033 -6.734618561215508 C95.91107667754014 -6.494597606402427, 95.99076912510995 -6.254576651589346, 96.22527313421489 -5.548287939305138 M95.83138422997033 -6.734618561215508 C95.97196493548768 -6.311211874690912, 96.11254564100503 -5.8878051881663165, 96.22527313421489 -5.548287939305138 M96.22527313421489 -5.548287939305138 C96.31054517446657 -5.223108692689447, 96.39581721471825 -4.897929446073755, 96.54234428754556 -4.339158212148133 M96.22527313421489 -5.548287939305138 C96.31816291674629 -5.194058939826472, 96.4110526992777 -4.839829940347805, 96.54234428754556 -4.339158212148133 M96.54234428754556 -4.339158212148133 C96.59816701074568 -4.0525203266522425, 96.65398973394579 -3.7658824411563523, 96.78129477658177 -3.1121979531509023 M96.54234428754556 -4.339158212148133 C96.61958550178701 -3.9425409019546764, 96.69682671602847 -3.5459235917612197, 96.78129477658177 -3.1121979531509023 M96.78129477658177 -3.1121979531509023 C96.82537810908927 -2.7702963314614415, 96.86946144159675 -2.4283947097719807, 96.94114270250937 -1.872449005199798 M96.78129477658177 -3.1121979531509023 C96.82322107688864 -2.7870258472552294, 96.86514737719553 -2.4618537413595565, 96.94114270250937 -1.872449005199798 M96.94114270250937 -1.872449005199798 C96.9728410753916 -1.3787212610929196, 97.00453944827383 -0.8849935169860413, 97.02123121591342 -0.6250057626472757 M96.94114270250937 -1.872449005199798 C96.95723045145664 -1.6218693295488535, 96.97331820040391 -1.3712896538979091, 97.02123121591342 -0.6250057626472757 M97.02123121591342 -0.6250057626472757 C97.02123121591342 -0.2951583712822828, 97.02123121591342 0.03468902008271013, 97.02123121591342 0.625005762647271 M97.02123121591342 -0.6250057626472757 C97.02123121591342 -0.15610274323001144, 97.02123121591342 0.3128002761872528, 97.02123121591342 0.625005762647271 M97.02123121591342 0.625005762647271 C96.99194151704155 1.0812164647959386, 96.96265181816969 1.5374271669446062, 96.94114270250937 1.8724490051997846 M97.02123121591342 0.625005762647271 C96.99066688414463 1.1010699010307463, 96.96010255237583 1.5771340394142217, 96.94114270250937 1.8724490051997846 M96.94114270250937 1.8724490051997846 C96.87927078064325 2.352315413200424, 96.81739885877714 2.832181821201063, 96.78129477658177 3.1121979531508885 M96.94114270250937 1.8724490051997846 C96.8899921942748 2.269162246256742, 96.83884168604024 2.665875487313699, 96.78129477658177 3.1121979531508885 M96.78129477658177 3.1121979531508885 C96.71132046198153 3.4715012695465033, 96.6413461473813 3.8308045859421185, 96.54234428754556 4.339158212148129 M96.78129477658177 3.1121979531508885 C96.70754598354961 3.4908824185581158, 96.63379719051746 3.869566883965343, 96.54234428754556 4.339158212148129 M96.54234428754556 4.339158212148129 C96.4609518434436 4.649542877217342, 96.37955939934163 4.959927542286555, 96.22527313421489 5.548287939305125 M96.54234428754556 4.339158212148129 C96.460759391785 4.650276778800647, 96.37917449602443 4.961395345453164, 96.22527313421489 5.548287939305125 M96.22527313421489 5.548287939305125 C96.12795291169049 5.841400943676916, 96.03063268916607 6.134513948048708, 95.83138422997033 6.734618561215495 M96.22527313421489 5.548287939305125 C96.11113778794137 5.892045417283103, 95.99700244166785 6.235802895261079, 95.83138422997033 6.734618561215495 M95.83138422997033 6.734618561215495 C95.64985170108883 7.183007417245455, 95.46831917220734 7.631396273275416, 95.36229614880834 7.893275190886679 M95.83138422997033 6.734618561215495 C95.68672396734254 7.0919322067220145, 95.54206370471478 7.449245852228534, 95.36229614880834 7.893275190886679 M95.36229614880834 7.893275190886679 C95.19566374180191 8.239290949397892, 95.02903133479548 8.585306707909107, 94.8199364742735 9.019496659696284 M95.36229614880834 7.893275190886679 C95.25267489033462 8.120906079626565, 95.14305363186088 8.348536968366451, 94.8199364742735 9.019496659696284 M94.8199364742735 9.019496659696284 C94.58727577245013 9.432609295234435, 94.35461507062676 9.845721930772587, 94.20653387860425 10.108655082055236 M94.8199364742735 9.019496659696284 C94.57489965917476 9.454584337572232, 94.329862844076 9.889672015448179, 94.20653387860425 10.108655082055236 M94.20653387860425 10.108655082055236 C94.03422403302409 10.373369276538536, 93.86191418744394 10.638083471021837, 93.52460896464065 11.156274872382301 M94.20653387860425 10.108655082055236 C94.05551294870153 10.340663785183692, 93.90449201879882 10.572672488312147, 93.52460896464065 11.156274872382301 M93.52460896464065 11.156274872382301 C93.31255912786752 11.440402335520764, 93.10050929109437 11.724529798659226, 92.77696390812659 12.158051136245302 M93.52460896464065 11.156274872382301 C93.36105586551213 11.375421125220665, 93.19750276638361 11.594567378059029, 92.77696390812659 12.158051136245302 M92.77696390812659 12.158051136245302 C92.50029447804638 12.48304279175406, 92.22362504796618 12.80803444726282, 91.96667094296866 13.10986736009567 M92.77696390812659 12.158051136245302 C92.58527268309898 12.38322255670243, 92.39358145807138 12.608393977159556, 91.96667094296866 13.10986736009567 M91.96667094296866 13.10986736009567 C91.62430641795147 13.463386840826173, 91.28194189293428 13.816906321556676, 91.09705973676799 14.007812326905684 M91.96667094296866 13.10986736009567 C91.62768944171259 13.459893591041403, 91.2887079404565 13.809919821987139, 91.09705973676799 14.007812326905684 M91.09705973676799 14.007812326905684 C90.82575723924143 14.25420207688858, 90.55445474171486 14.500591826871478, 90.1717037085019 14.848196188198111 M91.09705973676799 14.007812326905684 C90.8100397370451 14.268476296520967, 90.52301973732222 14.529140266136253, 90.1717037085019 14.848196188198111 M90.1717037085019 14.848196188198111 C89.80162117518475 15.143327160208715, 89.4315386418676 15.438458132219319, 89.19440534457871 15.627565626425152 M90.1717037085019 14.848196188198111 C89.81543724015881 15.13230921605283, 89.45917077181574 15.416422243907547, 89.19440534457871 15.627565626425152 M89.19440534457871 15.627565626425152 C88.87481957267006 15.850494826263537, 88.55523380076141 16.07342402610192, 88.1691805736057 16.34271804539089 M89.19440534457871 15.627565626425152 C88.7972741582262 15.904587150492688, 88.40014297187369 16.181608674560223, 88.1691805736057 16.34271804539089 M88.1691805736057 16.34271804539089 C87.89782712433805 16.507214100986808, 87.62647367507041 16.671710156582723, 87.10024226407678 16.990714730406093 M88.1691805736057 16.34271804539089 C87.78631608601216 16.574812747731556, 87.40345159841864 16.806907450072227, 87.10024226407678 16.990714730406093 M87.10024226407678 16.990714730406093 C86.82456101481608 17.134537461563134, 86.54887976555537 17.27836019272018, 85.99198291279238 17.56889292409717 M87.10024226407678 16.990714730406093 C86.84504265628509 17.123852202327875, 86.58984304849338 17.256989674249652, 85.99198291279238 17.56889292409717 M85.99198291279238 17.56889292409717 C85.68658918672018 17.704081667446317, 85.381195460648 17.839270410795464, 84.8489565951478 18.07487676824742 M85.99198291279238 17.56889292409717 C85.76068454507622 17.67128185026282, 85.52938617736005 17.773670776428464, 84.8489565951478 18.07487676824742 M84.8489565951478 18.07487676824742 C84.5615524863067 18.180644137035404, 84.2741483774656 18.28641150582339, 83.67586025146062 18.506587066708033 M84.8489565951478 18.07487676824742 C84.50938806735829 18.199841125411023, 84.16981953956876 18.32480548257463, 83.67586025146062 18.506587066708033 M83.67586025146062 18.506587066708033 C83.40185594069928 18.587910107864023, 83.12785162993794 18.669233149020013, 82.47751438623541 18.86224982926107 M83.67586025146062 18.506587066708033 C83.40913447058364 18.585749878400126, 83.14240868970666 18.66491269009222, 82.47751438623541 18.86224982926107 M82.47751438623541 18.86224982926107 C81.99495862324441 18.972390033193125, 81.51240286025342 19.08253023712518, 81.25884325967677 19.140403561325773 M82.47751438623541 18.86224982926107 C82.23224630383756 18.918230668544567, 81.98697822143968 18.974211507828066, 81.25884325967677 19.140403561325773 M81.25884325967677 19.140403561325773 C80.96822851953233 19.187387898761354, 80.67761377938791 19.234372236196936, 80.02485465284788 19.3399052695533 M81.25884325967677 19.140403561325773 C80.87037576838445 19.203207972707524, 80.48190827709215 19.26601238408928, 80.02485465284788 19.3399052695533 M80.02485465284788 19.3399052695533 C79.63549632656563 19.37746619901785, 79.24613800028338 19.4150271284824, 78.7806192896239 19.45993515863156 M80.02485465284788 19.3399052695533 C79.70793173581387 19.370478442203996, 79.39100881877988 19.401051614854694, 78.7806192896239 19.45993515863156 M78.7806192896239 19.45993515863156 C78.45161699870621 19.47048562173718, 78.12261470778853 19.4810360848428, 77.53125 19.5 M78.7806192896239 19.45993515863156 C78.5280458789093 19.468034696308855, 78.27547246819469 19.47613423398615, 77.53125 19.5 M77.53125 19.5 C77.53125 19.5, 77.53125 19.5, 77.53125 19.5 M77.53125 19.5 C77.53125 19.5, 77.53125 19.5, 77.53125 19.5 M77.53125 19.5 C25.51851857527842 19.5, -26.49421284944316 19.5, -77.53125 19.5 M77.53125 19.5 C16.68595052488979 19.5, -44.15934895022042 19.5, -77.53125 19.5 M-77.53125 19.5 C-77.97154834808028 19.48588048896581, -78.41184669616055 19.47176097793162, -78.7806192896239 19.45993515863156 M-77.53125 19.5 C-78.01715182485887 19.484418074227303, -78.50305364971776 19.468836148454606, -78.7806192896239 19.45993515863156 M-78.7806192896239 19.45993515863156 C-79.09758334991794 19.429358016940046, -79.41454741021198 19.398780875248537, -80.02485465284786 19.3399052695533 M-78.7806192896239 19.45993515863156 C-79.24168233690082 19.415456960970197, -79.70274538417775 19.37097876330883, -80.02485465284786 19.3399052695533 M-80.02485465284786 19.3399052695533 C-80.48317010198639 19.265808382025973, -80.94148555112493 19.191711494498644, -81.25884325967675 19.140403561325773 M-80.02485465284786 19.3399052695533 C-80.321052235077 19.29201834150505, -80.61724981730613 19.2441314134568, -81.25884325967675 19.140403561325773 M-81.25884325967675 19.140403561325773 C-81.52283182359882 19.080149894296934, -81.78682038752088 19.0198962272681, -82.47751438623538 18.862249829261074 M-81.25884325967675 19.140403561325773 C-81.57548467493866 19.068132224570583, -81.89212609020056 18.99586088781539, -82.47751438623538 18.862249829261074 M-82.47751438623538 18.862249829261074 C-82.94937186126992 18.722205007501252, -83.42122933630448 18.58216018574143, -83.67586025146059 18.506587066708043 M-82.47751438623538 18.862249829261074 C-82.90376481968114 18.735740938048558, -83.3300152531269 18.60923204683604, -83.67586025146059 18.506587066708043 M-83.67586025146059 18.506587066708043 C-84.06245872998234 18.364315252934883, -84.44905720850407 18.22204343916172, -84.8489565951478 18.074876768247425 M-83.67586025146059 18.506587066708043 C-84.06882165600035 18.361973637342007, -84.46178306054011 18.21736020797597, -84.8489565951478 18.074876768247425 M-84.8489565951478 18.074876768247425 C-85.08372132048984 17.970953388386647, -85.31848604583189 17.867030008525866, -85.99198291279238 17.568892924097174 M-84.8489565951478 18.074876768247425 C-85.15306212967424 17.940258269082733, -85.45716766420068 17.80563976991804, -85.99198291279238 17.568892924097174 M-85.99198291279238 17.568892924097174 C-86.31920232066449 17.398182768604332, -86.64642172853658 17.227472613111495, -87.10024226407678 16.990714730406097 M-85.99198291279238 17.568892924097174 C-86.23277817507771 17.443270189999645, -86.47357343736304 17.317647455902115, -87.10024226407678 16.990714730406097 M-87.10024226407678 16.990714730406097 C-87.48108181429401 16.759847557002793, -87.86192136451123 16.528980383599492, -88.16918057360569 16.3427180453909 M-87.10024226407678 16.990714730406097 C-87.34859608085644 16.84016118718524, -87.5969498976361 16.689607643964386, -88.16918057360569 16.3427180453909 M-88.16918057360569 16.3427180453909 C-88.57077305923879 16.062584512071755, -88.9723655448719 15.782450978752612, -89.19440534457871 15.627565626425156 M-88.16918057360569 16.3427180453909 C-88.47476117891 16.12955824350181, -88.78034178421433 15.916398441612715, -89.19440534457871 15.627565626425156 M-89.19440534457871 15.627565626425156 C-89.4315098999129 15.438481053163352, -89.66861445524707 15.249396479901549, -90.17170370850187 14.848196188198125 M-89.19440534457871 15.627565626425156 C-89.41031974934917 15.45537963434433, -89.62623415411963 15.283193642263504, -90.17170370850187 14.848196188198125 M-90.17170370850187 14.848196188198125 C-90.37867434932004 14.66023092835014, -90.58564499013819 14.472265668502155, -91.09705973676797 14.007812326905697 M-90.17170370850187 14.848196188198125 C-90.49255819819952 14.556804629999311, -90.81341268789717 14.265413071800499, -91.09705973676797 14.007812326905697 M-91.09705973676797 14.007812326905697 C-91.28881523614518 13.809809030379437, -91.4805707355224 13.61180573385318, -91.96667094296865 13.109867360095677 M-91.09705973676797 14.007812326905697 C-91.29830805137253 13.800006919282579, -91.49955636597709 13.592201511659463, -91.96667094296865 13.109867360095677 M-91.96667094296865 13.109867360095677 C-92.18845997498319 12.849341342937958, -92.41024900699774 12.588815325780239, -92.77696390812658 12.158051136245307 M-91.96667094296865 13.109867360095677 C-92.21286718447462 12.82067124585976, -92.4590634259806 12.531475131623843, -92.77696390812658 12.158051136245307 M-92.77696390812658 12.158051136245307 C-93.0657314675311 11.771128913909113, -93.3544990269356 11.384206691572917, -93.52460896464063 11.156274872382316 M-92.77696390812658 12.158051136245307 C-92.9592495643527 11.913804963467205, -93.14153522057883 11.669558790689104, -93.52460896464063 11.156274872382316 M-93.52460896464063 11.156274872382316 C-93.76326513122486 10.78963491235505, -94.00192129780906 10.422994952327782, -94.20653387860425 10.108655082055249 M-93.52460896464063 11.156274872382316 C-93.7077177068903 10.874970672704857, -93.89082644913998 10.5936664730274, -94.20653387860425 10.108655082055249 M-94.20653387860425 10.108655082055249 C-94.37300572931089 9.813067454022804, -94.53947758001753 9.517479825990359, -94.8199364742735 9.019496659696289 M-94.20653387860425 10.108655082055249 C-94.39783644416637 9.768978005414372, -94.58913900972848 9.429300928773493, -94.8199364742735 9.019496659696289 M-94.8199364742735 9.019496659696289 C-94.93338280858282 8.783922919140306, -95.04682914289212 8.548349178584322, -95.36229614880834 7.893275190886686 M-94.8199364742735 9.019496659696289 C-94.96779677452045 8.712461582529889, -95.1156570747674 8.405426505363486, -95.36229614880834 7.893275190886686 M-95.36229614880834 7.893275190886686 C-95.50774988656873 7.534001646461802, -95.65320362432912 7.174728102036919, -95.83138422997033 6.73461856121551 M-95.36229614880834 7.893275190886686 C-95.51548380543468 7.514898717337764, -95.66867146206103 7.136522243788842, -95.83138422997033 6.73461856121551 M-95.83138422997033 6.73461856121551 C-95.96127184291534 6.343417765805839, -96.09115945586036 5.952216970396169, -96.22527313421489 5.5482879393051325 M-95.83138422997033 6.73461856121551 C-95.95133725242327 6.3733391695059005, -96.07129027487623 6.012059777796291, -96.22527313421489 5.5482879393051325 M-96.22527313421489 5.5482879393051325 C-96.34992500563338 5.072936329123619, -96.47457687705186 4.597584718942106, -96.54234428754556 4.339158212148136 M-96.22527313421489 5.5482879393051325 C-96.32228503946733 5.178339499351873, -96.41929694471976 4.8083910593986126, -96.54234428754556 4.339158212148136 M-96.54234428754556 4.339158212148136 C-96.62415843705828 3.919059845826882, -96.70597258657102 3.498961479505628, -96.78129477658177 3.112197953150904 M-96.54234428754556 4.339158212148136 C-96.62625396509662 3.9082997522400427, -96.71016364264769 3.4774412923319495, -96.78129477658177 3.112197953150904 M-96.78129477658177 3.112197953150904 C-96.82443376768433 2.7776204569169036, -96.86757275878686 2.443042960682903, -96.94114270250937 1.872449005199809 M-96.78129477658177 3.112197953150904 C-96.81750893359097 2.8313281026817774, -96.85372309060016 2.5504582522126507, -96.94114270250937 1.872449005199809 M-96.94114270250937 1.872449005199809 C-96.96146320352855 1.555940799412749, -96.98178370454774 1.239432593625689, -97.02123121591342 0.6250057626472781 M-96.94114270250937 1.872449005199809 C-96.9703127075182 1.4181026315828782, -96.99948271252704 0.9637562579659472, -97.02123121591342 0.6250057626472781 M-97.02123121591342 0.6250057626472781 C-97.02123121591342 0.2402857363318897, -97.02123121591342 -0.14443428998349872, -97.02123121591342 -0.6250057626472687 M-97.02123121591342 0.6250057626472781 C-97.02123121591342 0.22842172369815583, -97.02123121591342 -0.16816231525096648, -97.02123121591342 -0.6250057626472687 M-97.02123121591342 -0.6250057626472687 C-96.99410363913589 -1.0475396679431341, -96.96697606235836 -1.4700735732389993, -96.94114270250937 -1.8724490051997822 M-97.02123121591342 -0.6250057626472687 C-96.99182570513285 -1.083020328755602, -96.96242019435229 -1.5410348948639352, -96.94114270250937 -1.8724490051997822 M-96.94114270250937 -1.8724490051997822 C-96.89712847320723 -2.2138146760744406, -96.85311424390511 -2.555180346949099, -96.78129477658177 -3.112197953150895 M-96.94114270250937 -1.8724490051997822 C-96.88558056769493 -2.303377950836013, -96.8300184328805 -2.7343068964722437, -96.78129477658177 -3.112197953150895 M-96.78129477658177 -3.112197953150895 C-96.68610489746165 -3.600977864044695, -96.59091501834152 -4.089757774938495, -96.54234428754556 -4.339158212148126 M-96.78129477658177 -3.112197953150895 C-96.68862551920415 -3.588035004130495, -96.59595626182653 -4.063872055110095, -96.54234428754556 -4.339158212148126 M-96.54234428754556 -4.339158212148126 C-96.42974586970716 -4.768544779828948, -96.31714745186875 -5.19793134750977, -96.22527313421489 -5.548287939305123 M-96.54234428754556 -4.339158212148126 C-96.47663925037233 -4.589719995632898, -96.4109342131991 -4.84028177911767, -96.22527313421489 -5.548287939305123 M-96.22527313421489 -5.548287939305123 C-96.08615363493078 -5.967293705466769, -95.94703413564669 -6.386299471628416, -95.83138422997033 -6.734618561215485 M-96.22527313421489 -5.548287939305123 C-96.14538052613084 -5.788911745695839, -96.06548791804678 -6.029535552086554, -95.83138422997033 -6.734618561215485 M-95.83138422997033 -6.734618561215485 C-95.71183256706637 -7.029913479962434, -95.59228090416241 -7.325208398709384, -95.36229614880834 -7.893275190886676 M-95.83138422997033 -6.734618561215485 C-95.69098747686964 -7.08140125576074, -95.55059072376896 -7.4281839503059945, -95.36229614880834 -7.893275190886676 M-95.36229614880834 -7.893275190886676 C-95.2050406592641 -8.219819579653759, -95.04778516971986 -8.546363968420842, -94.8199364742735 -9.019496659696282 M-95.36229614880834 -7.893275190886676 C-95.1698538253882 -8.292885793074687, -94.97741150196806 -8.692496395262697, -94.8199364742735 -9.019496659696282 M-94.8199364742735 -9.019496659696282 C-94.60133162292765 -9.407651709402407, -94.3827267715818 -9.795806759108533, -94.20653387860425 -10.108655082055243 M-94.8199364742735 -9.019496659696282 C-94.68821766221005 -9.253376748490979, -94.55649885014661 -9.487256837285674, -94.20653387860425 -10.108655082055243 M-94.20653387860425 -10.108655082055243 C-94.02026715029515 -10.394810796357959, -93.83400042198608 -10.680966510660674, -93.52460896464063 -11.156274872382308 M-94.20653387860425 -10.108655082055243 C-94.06374275713853 -10.328020589411478, -93.92095163567281 -10.547386096767713, -93.52460896464063 -11.156274872382308 M-93.52460896464063 -11.156274872382308 C-93.25380288079135 -11.519130353798573, -92.98299679694209 -11.881985835214838, -92.77696390812659 -12.158051136245302 M-93.52460896464063 -11.156274872382308 C-93.31000978564526 -11.443818221848705, -93.0954106066499 -11.731361571315102, -92.77696390812659 -12.158051136245302 M-92.77696390812659 -12.158051136245302 C-92.58750214852981 -12.380603699747203, -92.39804038893303 -12.603156263249106, -91.96667094296866 -13.10986736009567 M-92.77696390812659 -12.158051136245302 C-92.56499868631207 -12.407037546951436, -92.35303346449754 -12.65602395765757, -91.96667094296866 -13.10986736009567 M-91.96667094296866 -13.10986736009567 C-91.70543355352345 -13.379616412686396, -91.44419616407825 -13.64936546527712, -91.09705973676799 -14.007812326905677 M-91.96667094296866 -13.10986736009567 C-91.64296187743767 -13.444123547264958, -91.31925281190668 -13.778379734434246, -91.09705973676799 -14.007812326905677 M-91.09705973676799 -14.007812326905677 C-90.80145981440312 -14.276268355252103, -90.50585989203823 -14.54472438359853, -90.1717037085019 -14.848196188198107 M-91.09705973676799 -14.007812326905677 C-90.80525760635796 -14.272819301082778, -90.51345547594792 -14.537826275259881, -90.1717037085019 -14.848196188198107 M-90.1717037085019 -14.848196188198107 C-89.90826605532567 -15.058280706235777, -89.64482840214944 -15.268365224273445, -89.19440534457871 -15.627565626425149 M-90.1717037085019 -14.848196188198107 C-89.8043563216779 -15.141145953665735, -89.43700893485389 -15.43409571913336, -89.19440534457871 -15.627565626425149 M-89.19440534457871 -15.627565626425149 C-88.89805131178123 -15.834289370745356, -88.60169727898376 -16.041013115065564, -88.16918057360571 -16.342718045390885 M-89.19440534457871 -15.627565626425149 C-88.97133488466658 -15.783169922695285, -88.74826442475444 -15.93877421896542, -88.16918057360571 -16.342718045390885 M-88.16918057360571 -16.342718045390885 C-87.93021470835251 -16.487580557226682, -87.69124884309929 -16.63244306906248, -87.10024226407678 -16.99071473040609 M-88.16918057360571 -16.342718045390885 C-87.92694272308188 -16.489564053926053, -87.68470487255804 -16.63641006246122, -87.10024226407678 -16.99071473040609 M-87.10024226407678 -16.99071473040609 C-86.75060006958279 -17.173122839317095, -86.40095787508879 -17.3555309482281, -85.9919829127924 -17.56889292409717 M-87.10024226407678 -16.99071473040609 C-86.69265134731053 -17.203354650608606, -86.28506043054428 -17.415994570811122, -85.9919829127924 -17.56889292409717 M-85.9919829127924 -17.56889292409717 C-85.580000808696 -17.75126518056574, -85.1680187045996 -17.93363743703431, -84.84895659514781 -18.07487676824742 M-85.9919829127924 -17.56889292409717 C-85.653177678005 -17.718871951237354, -85.31437244321758 -17.868850978377537, -84.84895659514781 -18.07487676824742 M-84.84895659514781 -18.07487676824742 C-84.50028897148412 -18.20318967680384, -84.15162134782042 -18.331502585360262, -83.67586025146062 -18.506587066708033 M-84.84895659514781 -18.07487676824742 C-84.41169514557669 -18.235793023690128, -83.97443369600555 -18.396709279132832, -83.67586025146062 -18.506587066708033 M-83.67586025146062 -18.506587066708033 C-83.42326046358525 -18.5815573578261, -83.17066067570987 -18.656527648944166, -82.47751438623541 -18.862249829261067 M-83.67586025146062 -18.506587066708033 C-83.35054595958316 -18.6031386409277, -83.0252316677057 -18.699690215147363, -82.47751438623541 -18.862249829261067 M-82.47751438623541 -18.862249829261067 C-82.07275436384506 -18.954633663065678, -81.6679943414547 -19.047017496870286, -81.25884325967677 -19.140403561325773 M-82.47751438623541 -18.862249829261067 C-82.06248759549287 -18.95697698594514, -81.64746080475032 -19.051704142629212, -81.25884325967677 -19.140403561325773 M-81.25884325967677 -19.140403561325773 C-80.82032297998806 -19.211300119370282, -80.38180270029936 -19.28219667741479, -80.02485465284788 -19.3399052695533 M-81.25884325967677 -19.140403561325773 C-80.84801035819163 -19.206823838781155, -80.4371774567065 -19.273244116236537, -80.02485465284788 -19.3399052695533 M-80.02485465284788 -19.3399052695533 C-79.5279916706166 -19.387837043883987, -79.03112868838531 -19.435768818214676, -78.7806192896239 -19.45993515863156 M-80.02485465284788 -19.3399052695533 C-79.7252235130628 -19.368810325249196, -79.42559237327772 -19.397715380945098, -78.7806192896239 -19.45993515863156 M-78.7806192896239 -19.45993515863156 C-78.31068759674442 -19.475004953355654, -77.84075590386493 -19.490074748079746, -77.53125 -19.5 M-78.7806192896239 -19.45993515863156 C-78.47994341360145 -19.46957724874551, -78.179267537579 -19.479219338859462, -77.53125 -19.5 M-77.53125 -19.5 C-77.53125 -19.5, -77.53125 -19.5, -77.53125 -19.5 M-77.53125 -19.5 C-77.53125 -19.5, -77.53125 -19.5, -77.53125 -19.5" stroke="#9370DB" stroke-width="1.3" fill="none" stroke-dasharray="0 0" style=""/></g><g class="label" style="" transform="translate(-84.65625, -12)"><rect/><foreignObject width="169.3125" height="24"><div xmlns="http://www.w3.org/1999/xhtml" style="display: table-cell; white-space: nowrap; line-height: 1.5; max-width: 200px; text-align: center;"><span class="nodeLabel"><p>/pipeline-orchestrator/</p></span></div></foreignObject></g></g></g></g></g></svg>