<svg id="my-svg" width="100%" xmlns="http://www.w3.org/2000/svg" xmlns:xlink="http://www.w3.org/1999/xlink" class="flowchart" style="max-width: 276px; background-color: transparent;" viewBox="0 0 276 385" role="graphics-document document" aria-roledescription="flowchart-v2"><style>#my-svg{font-family:"trebuchet ms",verdana,arial,sans-serif;font-size:16px;fill:#333;}@keyframes edge-animation-frame{from{stroke-dashoffset:0;}}@keyframes dash{to{stroke-dashoffset:0;}}#my-svg .edge-animation-slow{stroke-dasharray:9,5!important;stroke-dashoffset:900;animation:dash 50s linear infinite;stroke-linecap:round;}#my-svg .edge-animation-fast{stroke-dasharray:9,5!important;stroke-dashoffset:900;animation:dash 20s linear infinite;stroke-linecap:round;}#my-svg .error-icon{fill:#552222;}#my-svg .error-text{fill:#552222;stroke:#552222;}#my-svg .edge-thickness-normal{stroke-width:1px;}#my-svg .edge-thickness-thick{stroke-width:3.5px;}#my-svg .edge-pattern-solid{stroke-dasharray:0;}#my-svg .edge-thickness-invisible{stroke-width:0;fill:none;}#my-svg .edge-pattern-dashed{stroke-dasharray:3;}#my-svg .edge-pattern-dotted{stroke-dasharray:2;}#my-svg .marker{fill:#333333;stroke:#333333;}#my-svg .marker.cross{stroke:#333333;}#my-svg svg{font-family:"trebuchet ms",verdana,arial,sans-serif;font-size:16px;}#my-svg p{margin:0;}#my-svg .label{font-family:"trebuchet ms",verdana,arial,sans-serif;color:#333;}#my-svg .cluster-label text{fill:#333;}#my-svg .cluster-label span{color:#333;}#my-svg .cluster-label span p{background-color:transparent;}#my-svg .label text,#my-svg span{fill:#333;color:#333;}#my-svg .node rect,#my-svg .node circle,#my-svg .node ellipse,#my-svg .node polygon,#my-svg .node path{fill:#ECECFF;stroke:#9370DB;stroke-width:1px;}#my-svg .rough-node .label text,#my-svg .node .label text,#my-svg .image-shape .label,#my-svg .icon-shape .label{text-anchor:middle;}#my-svg .node .katex path{fill:#000;stroke:#000;stroke-width:1px;}#my-svg .rough-node .label,#my-svg .node .label,#my-svg .image-shape .label,#my-svg .icon-shape .label{text-align:center;}#my-svg .node.clickable{cursor:pointer;}#my-svg .root .anchor path{fill:#333333!important;stroke-width:0;stroke:#333333;}#my-svg .arrowheadPath{fill:#333333;}#my-svg .edgePath .path{stroke:#333333;stroke-width:2.0px;}#my-svg .flowchart-link{stroke:#333333;fill:none;}#my-svg .edgeLabel{background-color:rgba(232,232,232, 0.8);text-align:center;}#my-svg .edgeLabel p{background-color:rgba(232,232,232, 0.8);}#my-svg .edgeLabel rect{opacity:0.5;background-color:rgba(232,232,232, 0.8);fill:rgba(232,232,232, 0.8);}#my-svg .labelBkg{background-color:rgba(232, 232, 232, 0.5);}#my-svg .cluster rect{fill:#ffffde;stroke:#aaaa33;stroke-width:1px;}#my-svg .cluster text{fill:#333;}#my-svg .cluster span{color:#333;}#my-svg div.mermaidTooltip{position:absolute;text-align:center;max-width:200px;padding:2px;font-family:"trebuchet ms",verdana,arial,sans-serif;font-size:12px;background:hsl(80, 100%, 96.2745098039%);border:1px solid #aaaa33;border-radius:2px;pointer-events:none;z-index:100;}#my-svg .flowchartTitleText{text-anchor:middle;font-size:18px;fill:#333;}#my-svg rect.text{fill:none;stroke-width:0;}#my-svg .icon-shape,#my-svg .image-shape{background-color:rgba(232,232,232, 0.8);text-align:center;}#my-svg .icon-shape p,#my-svg .image-shape p{background-color:rgba(232,232,232, 0.8);padding:2px;}#my-svg .icon-shape .label rect,#my-svg .image-shape .label rect{opacity:0.5;background-color:rgba(232,232,232, 0.8);fill:rgba(232,232,232, 0.8);}#my-svg .label-icon{display:inline-block;height:1em;overflow:visible;vertical-align:-0.125em;}#my-svg .node .label-icon path{fill:currentColor;stroke:revert;stroke-width:revert;}#my-svg :root{--mermaid-font-family:"trebuchet ms",verdana,arial,sans-serif;}</style><g><marker id="my-svg_flowchart-v2-pointEnd" class="marker flowchart-v2" viewBox="0 0 10 10" refX="5" refY="5" markerUnits="userSpaceOnUse" markerWidth="8" markerHeight="8" orient="auto"><path d="M 0 0 L 10 5 L 0 10 z" class="arrowMarkerPath" style="stroke-width: 1; stroke-dasharray: 1, 0;"/></marker><marker id="my-svg_flowchart-v2-pointStart" class="marker flowchart-v2" viewBox="0 0 10 10" refX="4.5" refY="5" markerUnits="userSpaceOnUse" markerWidth="8" markerHeight="8" orient="auto"><path d="M 0 5 L 10 10 L 10 0 z" class="arrowMarkerPath" style="stroke-width: 1; stroke-dasharray: 1, 0;"/></marker><marker id="my-svg_flowchart-v2-circleEnd" class="marker flowchart-v2" viewBox="0 0 10 10" refX="11" refY="5" markerUnits="userSpaceOnUse" markerWidth="11" markerHeight="11" orient="auto"><circle cx="5" cy="5" r="5" class="arrowMarkerPath" style="stroke-width: 1; stroke-dasharray: 1, 0;"/></marker><marker id="my-svg_flowchart-v2-circleStart" class="marker flowchart-v2" viewBox="0 0 10 10" refX="-1" refY="5" markerUnits="userSpaceOnUse" markerWidth="11" markerHeight="11" orient="auto"><circle cx="5" cy="5" r="5" class="arrowMarkerPath" style="stroke-width: 1; stroke-dasharray: 1, 0;"/></marker><marker id="my-svg_flowchart-v2-crossEnd" class="marker cross flowchart-v2" viewBox="0 0 11 11" refX="12" refY="5.2" markerUnits="userSpaceOnUse" markerWidth="11" markerHeight="11" orient="auto"><path d="M 1,1 l 9,9 M 10,1 l -9,9" class="arrowMarkerPath" style="stroke-width: 2; stroke-dasharray: 1, 0;"/></marker><marker id="my-svg_flowchart-v2-crossStart" class="marker cross flowchart-v2" viewBox="0 0 11 11" refX="-1" refY="5.2" markerUnits="userSpaceOnUse" markerWidth="11" markerHeight="11" orient="auto"><path d="M 1,1 l 9,9 M 10,1 l -9,9" class="arrowMarkerPath" style="stroke-width: 2; stroke-dasharray: 1, 0;"/></marker><g class="root"><g class="clusters"/><g class="edgePaths"><path d="M138.5,71.5L138.417,75.583C138.333,79.667,138.167,87.833,138.083,95.417C138,103,138,110,138,113.5L138,117" id="L_s1_s2_0" class="edge-thickness-normal edge-pattern-solid edge-thickness-normal edge-pattern-solid flowchart-link" style=";" data-edge="true" data-et="edge" data-id="L_s1_s2_0" data-points="W3sieCI6MTM4LjUsInkiOjcxLjV9LHsieCI6MTM4LCJ5Ijo5Nn0seyJ4IjoxMzgsInkiOjEyMX1d" marker-end="url(#my-svg_flowchart-v2-pointEnd)"/><path d="M138,199L138,203.167C138,207.333,138,215.667,138.07,223.417C138.141,231.167,138.281,238.334,138.351,241.917L138.422,245.501" id="L_s2_s3_0" class="edge-thickness-normal edge-pattern-solid edge-thickness-normal edge-pattern-solid flowchart-link" style=";" data-edge="true" data-et="edge" data-id="L_s2_s3_0" data-points="W3sieCI6MTM4LCJ5IjoxOTl9LHsieCI6MTM4LCJ5IjoyMjR9LHsieCI6MTM4LjUsInkiOjI0OS41fV0=" marker-end="url(#my-svg_flowchart-v2-pointEnd)"/><path d="M138.5,288.5L138.417,292.583C138.333,296.667,138.167,304.833,138.154,312.5C138.141,320.167,138.281,327.334,138.351,330.917L138.422,334.501" id="L_s3_implement_ext_0" class="edge-thickness-normal edge-pattern-dotted edge-thickness-normal edge-pattern-solid flowchart-link" style=";" data-edge="true" data-et="edge" data-id="L_s3_implement_ext_0" data-points="W3sieCI6MTM4LjUsInkiOjI4OC41fSx7IngiOjEzOCwieSI6MzEzfSx7IngiOjEzOC41LCJ5IjozMzguNX1d" marker-end="url(#my-svg_flowchart-v2-pointEnd)"/></g><g class="edgeLabels"><g class="edgeLabel"><g class="label" data-id="L_s1_s2_0" transform="translate(0, 0)"><foreignObject width="0" height="0"><div xmlns="http://www.w3.org/1999/xhtml" class="labelBkg" style="display: table-cell; white-space: nowrap; line-height: 1.5; max-width: 200px; text-align: center;"><span class="edgeLabel"></span></div></foreignObject></g></g><g class="edgeLabel"><g class="label" data-id="L_s2_s3_0" transform="translate(0, 0)"><foreignObject width="0" height="0"><div xmlns="http://www.w3.org/1999/xhtml" class="labelBkg" style="display: table-cell; white-space: nowrap; line-height: 1.5; max-width: 200px; text-align: center;"><span class="edgeLabel"></span></div></foreignObject></g></g><g class="edgeLabel"><g class="label" data-id="L_s3_implement_ext_0" transform="translate(0, 0)"><foreignObject width="0" height="0"><div xmlns="http://www.w3.org/1999/xhtml" class="labelBkg" style="display: table-cell; white-space: nowrap; line-height: 1.5; max-width: 200px; text-align: center;"><span class="edgeLabel"></span></div></foreignObject></g></g></g><g class="nodes"><g class="node default" id="flowchart-s1-0" transform="translate(138, 39.5)"><polygon points="15.75,0 230.75,0 246.5,-31.5 230.75,-63 15.75,-63 0,-31.5" class="label-container" transform="translate(-123.25,31.5)"/><g class="label" style="" transform="translate(-100, -24)"><rect/><foreignObject width="200" height="48"><div xmlns="http://www.w3.org/1999/xhtml" style="display: table; white-space: break-spaces; line-height: 1.5; max-width: 200px; text-align: center; width: 200px;"><span class="nodeLabel"><p>s1: RED — Write a Failing Test</p></span></div></foreignObject></g></g><g class="node default" id="flowchart-s2-1" transform="translate(138, 160)"><rect class="basic label-container" style="" x="-130" y="-39" width="260" height="78"/><g class="label" style="" transform="translate(-100, -24)"><rect/><foreignObject width="200" height="48"><div xmlns="http://www.w3.org/1999/xhtml" style="display: table; white-space: break-spaces; line-height: 1.5; max-width: 200px; text-align: center; width: 200px;"><span class="nodeLabel"><p>s2: GREEN — Minimal Implementation</p></span></div></foreignObject></g></g><g class="node default" id="flowchart-s3-4" transform="translate(138, 268.5)"><polygon points="9.75,0 208.078125,0 217.828125,-19.5 208.078125,-39 9.75,-39 0,-19.5" class="label-container" transform="translate(-108.9140625,19.5)"/><g class="label" style="" transform="translate(-91.6640625, -12)"><rect/><foreignObject width="183.328125" height="24"><div xmlns="http://www.w3.org/1999/xhtml" style="display: table-cell; white-space: nowrap; line-height: 1.5; max-width: 200px; text-align: center;"><span class="nodeLabel"><p>s3: REFACTOR — Clean Up</p></span></div></foreignObject></g></g><g class="node default" id="flowchart-implement_ext-7" transform="translate(138, 357.5)"><g class="basic label-container outer-path"><path d="M-39.9140625 -19.5 C-9.702145495096762 -19.5, 20.509771509806477 -19.5, 39.9140625 -19.5 C39.9140625 -19.5, 39.9140625 -19.5, 39.9140625 -19.5 C40.20947817426724 -19.490526594317977, 40.50489384853448 -19.481053188635954, 41.1634317896239 -19.45993515863156 C41.49835241490808 -19.42762576871138, 41.833273040192246 -19.395316378791197, 42.407667152847864 -19.3399052695533 C42.692034292157146 -19.293930995769877, 42.97640143146643 -19.247956721986455, 43.64165575967676 -19.140403561325776 C44.09905964795611 -19.03600410866533, 44.55646353623546 -18.93160465600489, 44.86032688623539 -18.862249829261074 C45.112305784434994 -18.78746381493966, 45.36428468263459 -18.712677800618245, 46.058672751460605 -18.50658706670804 C46.4253478318603 -18.371647247613662, 46.79202291226 -18.23670742851929, 47.2317690951478 -18.074876768247425 C47.5218970320822 -17.94644573690603, 47.81202496901661 -17.818014705564632, 48.37479541279238 -17.568892924097174 C48.608688121120586 -17.44687124797778, 48.84258082944879 -17.324849571858387, 49.48305476407678 -16.990714730406097 C49.705494741888195 -16.855870308654413, 49.92793471969961 -16.721025886902726, 50.5519930736057 -16.342718045390892 C50.77665616203166 -16.186002800413295, 51.00131925045762 -16.029287555435694, 51.57721784457871 -15.627565626425154 C51.81302611721288 -15.43951480412108, 52.04883438984704 -15.251463981817006, 52.554516208501866 -14.848196188198123 C52.901615550400216 -14.532969749631379, 53.248714892298565 -14.217743311064634, 53.47987223676799 -14.007812326905688 C53.68539668759045 -13.79559145756027, 53.890921138412914 -13.583370588214853, 54.34948344296865 -13.10986736009568 C54.58370992174836 -12.834731610256833, 54.81793640052806 -12.559595860417984, 55.15977640812658 -12.158051136245305 C55.38860827936399 -11.851437275799508, 55.617440150601404 -11.54482341535371, 55.907421464640635 -11.156274872382312 C56.13675436747976 -10.803957949114363, 56.366087270318886 -10.451641025846413, 56.58934637860425 -10.108655082055241 C56.83087415691137 -9.679798054331334, 57.07240193521849 -9.250941026607427, 57.202748974273504 -9.019496659696287 C57.409376709822695 -8.590429745703094, 57.61600444537189 -8.1613628317099, 57.74510864880834 -7.893275190886684 C57.86204377527695 -7.604443167722341, 57.97897890174556 -7.315611144557996, 58.214196729970325 -6.734618561215508 C58.33165140873317 -6.380863782643485, 58.44910608749602 -6.0271090040714626, 58.60808563421488 -5.548287939305138 C58.70887609942307 -5.163930212602361, 58.809666564631264 -4.779572485899584, 58.92515678754556 -4.339158212148133 C59.012476388997094 -3.8907905136988132, 59.09979599044863 -3.4424228152494933, 59.164107276581774 -3.1121979531509023 C59.21079919506268 -2.750064653775238, 59.25749111354358 -2.3879313543995737, 59.32395520250937 -1.872449005199798 C59.341163051718475 -1.6044228638421156, 59.358370900927575 -1.3363967224844335, 59.40404371591342 -0.6250057626472757 C59.40404371591342 -0.16777217633166142, 59.40404371591342 0.28946140998395287, 59.40404371591342 0.625005762647271 C59.37932636132435 1.0099985118614296, 59.354609006735295 1.3949912610755881, 59.32395520250937 1.8724490051997846 C59.286862267161105 2.1601344869323222, 59.24976933181284 2.4478199686648594, 59.164107276581774 3.1121979531508885 C59.10294681053599 3.4262440200269078, 59.04178634449021 3.740290086902927, 58.92515678754556 4.339158212148129 C58.84946101510982 4.6278189992009136, 58.77376524267408 4.916479786253698, 58.60808563421489 5.548287939305125 C58.46822219755876 5.969534326300993, 58.32835876090264 6.390780713296861, 58.214196729970325 6.734618561215495 C58.02905308720885 7.191926938345158, 57.84390944444738 7.6492353154748205, 57.74510864880834 7.893275190886679 C57.62322004407636 8.14637948661099, 57.501331439344376 8.399483782335299, 57.202748974273504 9.019496659696284 C57.031525493007834 9.323521288941057, 56.86030201174216 9.627545918185831, 56.58934637860425 10.108655082055236 C56.37244866795486 10.441868210803095, 56.15555095730548 10.775081339550956, 55.90742146464064 11.156274872382301 C55.649373543234766 11.502035578416914, 55.3913256218289 11.847796284451526, 55.15977640812658 12.158051136245302 C54.88188006786465 12.484483990266687, 54.60398372760272 12.810916844288071, 54.34948344296866 13.10986736009567 C54.120746295487685 13.346057244538843, 53.89200914800671 13.582247128982015, 53.47987223676799 14.007812326905684 C53.16963349581508 14.289562942971843, 52.859394754862166 14.571313559038003, 52.55451620850189 14.848196188198111 C52.34234089931632 15.017400351051496, 52.13016559013076 15.18660451390488, 51.57721784457871 15.627565626425152 C51.358143855390956 15.78038215772239, 51.139069866203194 15.933198689019628, 50.55199307360571 16.34271804539089 C50.28578654668535 16.504094006413204, 50.019580019765 16.66546996743552, 49.48305476407678 16.990714730406093 C49.08292839221608 17.19946040231265, 48.68280202035539 17.4082060742192, 48.37479541279239 17.56889292409717 C48.076562946437846 17.700911590200537, 47.7783304800833 17.832930256303907, 47.231769095147804 18.07487676824742 C46.77787128459764 18.241915358315246, 46.32397347404747 18.408953948383076, 46.05867275146062 18.506587066708033 C45.67672500650995 18.619947152524766, 45.29477726155928 18.733307238341503, 44.86032688623541 18.86224982926107 C44.55586493026534 18.9317412839113, 44.25140297429526 19.00123273856153, 43.641655759676766 19.140403561325773 C43.33912342807966 19.189314642525122, 43.03659109648255 19.238225723724472, 42.40766715284788 19.3399052695533 C42.08498926313654 19.37103361749681, 41.762311373425206 19.402161965440325, 41.1634317896239 19.45993515863156 C40.77136759185183 19.472507894347444, 40.379303394079756 19.485080630063326, 39.91406250000001 19.5 C39.91406250000001 19.5, 39.9140625 19.5, 39.9140625 19.5 C21.067126948695325 19.5, 2.22019139739065 19.5, -39.91406249999999 19.5 C-40.257654386324546 19.488981676966606, -40.6012462726491 19.477963353933216, -41.16343178962389 19.45993515863156 C-41.65295888921032 19.41271106807693, -42.14248598879674 19.365486977522302, -42.40766715284787 19.3399052695533 C-42.78982903512918 19.27812030013572, -43.17199091741048 19.216335330718135, -43.64165575967676 19.140403561325773 C-43.956482570084 19.068546396287257, -44.27130938049124 18.996689231248737, -44.860326886235384 18.862249829261074 C-45.245871649582604 18.74782216726538, -45.63141641292982 18.63339450526969, -46.05867275146059 18.506587066708043 C-46.32426118064823 18.408848069694464, -46.58984960983587 18.311109072680885, -47.2317690951478 18.074876768247425 C-47.63839838534276 17.894874043707436, -48.04502767553772 17.71487131916745, -48.37479541279238 17.568892924097174 C-48.66020244590124 17.41999625773621, -48.94560947901011 17.271099591375247, -49.48305476407678 16.990714730406097 C-49.88450667254902 16.747352224296943, -50.28595858102126 16.503989718187793, -50.551993073605686 16.3427180453909 C-50.843622287935 16.13929012989999, -51.13525150226431 15.935862214409083, -51.57721784457871 15.627565626425156 C-51.819967503589865 15.43397923320348, -52.06271716260102 15.240392839981807, -52.554516208501866 14.848196188198125 C-52.744325400797365 14.675816501831381, -52.934134593092864 14.503436815464637, -53.479872236767974 14.007812326905697 C-53.66241757154484 13.819319281497869, -53.84496290632171 13.63082623609004, -54.349483442968655 13.109867360095677 C-54.567040757056375 12.854312159606378, -54.78459807114409 12.598756959117079, -55.159776408126575 12.158051136245307 C-55.323833485455985 11.938229598531109, -55.487890562785395 11.71840806081691, -55.907421464640635 11.156274872382316 C-56.08067515601146 10.890110677306467, -56.253928847382284 10.623946482230616, -56.58934637860425 10.108655082055249 C-56.77667108020312 9.776041105683511, -56.963995781802005 9.443427129311772, -57.202748974273504 9.019496659696289 C-57.41007875191333 8.588971940280596, -57.61740852955316 8.158447220864904, -57.74510864880834 7.893275190886686 C-57.9192607416917 7.463116154463124, -58.09341283457506 7.032957118039562, -58.214196729970325 6.73461856121551 C-58.320470105735836 6.414540085772765, -58.42674348150134 6.094461610330019, -58.60808563421488 5.5482879393051325 C-58.73387015205837 5.068617057413029, -58.85965466990186 4.588946175520926, -58.92515678754556 4.339158212148136 C-58.997807760823655 3.966110819153773, -59.07045873410174 3.5930634261594094, -59.164107276581774 3.112197953150904 C-59.22058713264294 2.6741513427496004, -59.27706698870411 2.2361047323482968, -59.32395520250937 1.872449005199809 C-59.34356855221877 1.5669552518649206, -59.36318190192817 1.2614614985300323, -59.40404371591342 0.6250057626472781 C-59.40404371591342 0.31145486331618233, -59.40404371591342 -0.0020960360149134827, -59.40404371591342 -0.6250057626472687 C-59.3856391158442 -0.9116722646511664, -59.367234515774975 -1.198338766655064, -59.32395520250937 -1.8724490051997822 C-59.28944578669985 -2.140097219563424, -59.25493637089034 -2.407745433927065, -59.164107276581774 -3.112197953150895 C-59.114841759624795 -3.3651659704542736, -59.065576242667824 -3.618133987757652, -58.92515678754556 -4.339158212148126 C-58.814682025135205 -4.7604463612837264, -58.70420726272484 -5.181734510419326, -58.60808563421489 -5.548287939305123 C-58.45537761291584 -6.008220168738827, -58.3026695916168 -6.468152398172531, -58.21419672997033 -6.734618561215485 C-58.02931441133364 -7.191281462704576, -57.84443209269695 -7.647944364193666, -57.74510864880834 -7.893275190886676 C-57.5695098019858 -8.257909953527108, -57.393910955163264 -8.622544716167539, -57.202748974273504 -9.019496659696282 C-57.0411287649279 -9.306469707210253, -56.87950855558229 -9.593442754724224, -56.58934637860425 -10.108655082055243 C-56.35846580042737 -10.463349650251011, -56.12758522225048 -10.81804421844678, -55.90742146464064 -11.156274872382308 C-55.754604797178985 -11.361035284896127, -55.60178812971732 -11.565795697409948, -55.15977640812659 -12.158051136245302 C-54.836643714985016 -12.537621184380509, -54.513511021843435 -12.917191232515716, -54.34948344296866 -13.10986736009567 C-54.1055065625117 -13.36179352004189, -53.861529682054744 -13.61371967998811, -53.479872236767996 -14.007812326905677 C-53.13567732744741 -14.320401036652376, -52.79148241812682 -14.632989746399076, -52.55451620850189 -14.848196188198107 C-52.23610660309689 -15.102119375273139, -51.9176969976919 -15.356042562348168, -51.57721784457872 -15.627565626425149 C-51.2659995354452 -15.844658046453228, -50.95478122631168 -16.061750466481307, -50.551993073605715 -16.342718045390885 C-50.296269015805905 -16.497739472030503, -50.04054495800609 -16.65276089867012, -49.48305476407679 -16.99071473040609 C-49.14322013557314 -17.168006238421977, -48.80338550706949 -17.34529774643786, -48.37479541279239 -17.56889292409717 C-48.13304300291409 -17.67590954461985, -47.891290593035805 -17.782926165142527, -47.231769095147804 -18.07487676824742 C-46.95664712884579 -18.17612419504614, -46.68152516254377 -18.27737162184486, -46.05867275146062 -18.506587066708033 C-45.64694356637139 -18.62878612763192, -45.23521438128216 -18.75098518855581, -44.86032688623541 -18.862249829261067 C-44.40159116804796 -18.966953263407035, -43.942855449860495 -19.071656697553, -43.641655759676766 -19.140403561325773 C-43.20916549420099 -19.210325233435796, -42.77667522872521 -19.28024690554582, -42.40766715284788 -19.3399052695533 C-41.91979893377919 -19.38696932989948, -41.431930714710504 -19.434033390245656, -41.1634317896239 -19.45993515863156 C-40.7578224444093 -19.472942260861895, -40.3522130991947 -19.48594936309223, -39.91406250000001 -19.5 C-39.91406250000001 -19.5, -39.9140625 -19.5, -39.9140625 -19.5" stroke="none" stroke-width="0" fill="#ECECFF" style=""/><path d="M-39.9140625 -19.5 C-20.826177024527862 -19.5, -1.7382915490557238 -19.5, 39.9140625 -19.5 M-39.9140625 -19.5 C-10.642215588097798 -19.5, 18.629631323804404 -19.5, 39.9140625 -19.5 M39.9140625 -19.5 C39.9140625 -19.5, 39.9140625 -19.5, 39.9140625 -19.5 M39.9140625 -19.5 C39.9140625 -19.5, 39.9140625 -19.5, 39.9140625 -19.5 M39.9140625 -19.5 C40.39459847510342 -19.484590146584967, 40.87513445020684 -19.469180293169934, 41.1634317896239 -19.45993515863156 M39.9140625 -19.5 C40.36684069370458 -19.485480284607185, 40.81961888740916 -19.47096056921437, 41.1634317896239 -19.45993515863156 M41.1634317896239 -19.45993515863156 C41.44020953323712 -19.433234742579128, 41.71698727685035 -19.4065343265267, 42.407667152847864 -19.3399052695533 M41.1634317896239 -19.45993515863156 C41.57418586203422 -19.420310207270184, 41.98493993444453 -19.380685255908805, 42.407667152847864 -19.3399052695533 M42.407667152847864 -19.3399052695533 C42.775560831671214 -19.28042707261923, 43.14345451049457 -19.22094887568516, 43.64165575967676 -19.140403561325776 M42.407667152847864 -19.3399052695533 C42.78189349816716 -19.279403256210728, 43.156119843486444 -19.21890124286816, 43.64165575967676 -19.140403561325776 M43.64165575967676 -19.140403561325776 C43.99124611779918 -19.06061184337462, 44.34083647592159 -18.98082012542346, 44.86032688623539 -18.862249829261074 M43.64165575967676 -19.140403561325776 C43.90869302153618 -19.07945404888735, 44.175730283395595 -19.018504536448923, 44.86032688623539 -18.862249829261074 M44.86032688623539 -18.862249829261074 C45.31017769972808 -18.72873646913155, 45.76002851322077 -18.595223109002028, 46.058672751460605 -18.50658706670804 M44.86032688623539 -18.862249829261074 C45.28318727022626 -18.736747086932038, 45.70604765421712 -18.611244344602998, 46.058672751460605 -18.50658706670804 M46.058672751460605 -18.50658706670804 C46.5225862025963 -18.33586262832117, 46.986499653732004 -18.1651381899343, 47.2317690951478 -18.074876768247425 M46.058672751460605 -18.50658706670804 C46.383915145620755 -18.386894859149372, 46.709157539780904 -18.2672026515907, 47.2317690951478 -18.074876768247425 M47.2317690951478 -18.074876768247425 C47.646048312290276 -17.89148764797479, 48.060327529432755 -17.70809852770216, 48.37479541279238 -17.568892924097174 M47.2317690951478 -18.074876768247425 C47.55867847514905 -17.93016368314308, 47.885587855150305 -17.78545059803873, 48.37479541279238 -17.568892924097174 M48.37479541279238 -17.568892924097174 C48.78954902479694 -17.352516230376764, 49.2043026368015 -17.13613953665635, 49.48305476407678 -16.990714730406097 M48.37479541279238 -17.568892924097174 C48.70149872530493 -17.398452015222837, 49.02820203781748 -17.2280111063485, 49.48305476407678 -16.990714730406097 M49.48305476407678 -16.990714730406097 C49.8785389142924 -16.75096991442255, 50.274023064508015 -16.511225098439002, 50.5519930736057 -16.342718045390892 M49.48305476407678 -16.990714730406097 C49.781313028415305 -16.80990881780397, 50.079571292753826 -16.629102905201844, 50.5519930736057 -16.342718045390892 M50.5519930736057 -16.342718045390892 C50.76368182566749 -16.195053135810966, 50.97537057772929 -16.047388226231043, 51.57721784457871 -15.627565626425154 M50.5519930736057 -16.342718045390892 C50.95595547324365 -16.060931362653896, 51.359917872881596 -15.779144679916898, 51.57721784457871 -15.627565626425154 M51.57721784457871 -15.627565626425154 C51.84758522008678 -15.411954839235491, 52.11795259559485 -15.19634405204583, 52.554516208501866 -14.848196188198123 M51.57721784457871 -15.627565626425154 C51.83960032214012 -15.418322582860897, 52.101982799701524 -15.209079539296638, 52.554516208501866 -14.848196188198123 M52.554516208501866 -14.848196188198123 C52.74387815035451 -14.676222682849978, 52.933240092207164 -14.504249177501833, 53.47987223676799 -14.007812326905688 M52.554516208501866 -14.848196188198123 C52.86912680990605 -14.562475164143212, 53.18373741131023 -14.2767541400883, 53.47987223676799 -14.007812326905688 M53.47987223676799 -14.007812326905688 C53.69239779113721 -13.788362243346947, 53.90492334550644 -13.568912159788207, 54.34948344296865 -13.10986736009568 M53.47987223676799 -14.007812326905688 C53.755281867686925 -13.723429271430666, 54.03069149860587 -13.439046215955642, 54.34948344296865 -13.10986736009568 M54.34948344296865 -13.10986736009568 C54.537026053385986 -12.889569138422635, 54.72456866380332 -12.669270916749591, 55.15977640812658 -12.158051136245305 M54.34948344296865 -13.10986736009568 C54.5586150213018 -12.864209508261645, 54.767746599634954 -12.61855165642761, 55.15977640812658 -12.158051136245305 M55.15977640812658 -12.158051136245305 C55.37596349454014 -11.868380135499882, 55.592150580953685 -11.578709134754458, 55.907421464640635 -11.156274872382312 M55.15977640812658 -12.158051136245305 C55.3680336614572 -11.879005389408364, 55.57629091478781 -11.599959642571422, 55.907421464640635 -11.156274872382312 M55.907421464640635 -11.156274872382312 C56.08872881869392 -10.87773808871496, 56.27003617274721 -10.599201305047606, 56.58934637860425 -10.108655082055241 M55.907421464640635 -11.156274872382312 C56.12274738007999 -10.82547644316317, 56.338073295519344 -10.494678013944027, 56.58934637860425 -10.108655082055241 M56.58934637860425 -10.108655082055241 C56.78520112487679 -9.760895147604723, 56.98105587114934 -9.413135213154204, 57.202748974273504 -9.019496659696287 M56.58934637860425 -10.108655082055241 C56.74971924587327 -9.823896816705323, 56.9100921131423 -9.539138551355405, 57.202748974273504 -9.019496659696287 M57.202748974273504 -9.019496659696287 C57.32690528380319 -8.761683426438433, 57.45106159333288 -8.503870193180578, 57.74510864880834 -7.893275190886684 M57.202748974273504 -9.019496659696287 C57.33435269619582 -8.746218715256044, 57.46595641811813 -8.472940770815798, 57.74510864880834 -7.893275190886684 M57.74510864880834 -7.893275190886684 C57.89690502633778 -7.51833520360567, 58.04870140386721 -7.143395216324656, 58.214196729970325 -6.734618561215508 M57.74510864880834 -7.893275190886684 C57.89047078405617 -7.5342279064388515, 58.035832919304 -7.175180621991018, 58.214196729970325 -6.734618561215508 M58.214196729970325 -6.734618561215508 C58.33974953818026 -6.356473507010562, 58.465302346390196 -5.9783284528056155, 58.60808563421488 -5.548287939305138 M58.214196729970325 -6.734618561215508 C58.33691011834433 -6.365025387156266, 58.45962350671834 -5.995432213097025, 58.60808563421488 -5.548287939305138 M58.60808563421488 -5.548287939305138 C58.695764345548 -5.213931012798095, 58.78344305688111 -4.8795740862910515, 58.92515678754556 -4.339158212148133 M58.60808563421488 -5.548287939305138 C58.72782679768596 -5.091662986841401, 58.84756796115703 -4.635038034377665, 58.92515678754556 -4.339158212148133 M58.92515678754556 -4.339158212148133 C58.98741323337701 -4.019484520708127, 59.049669679208456 -3.699810829268121, 59.164107276581774 -3.1121979531509023 M58.92515678754556 -4.339158212148133 C59.01673835948887 -3.8689061959913067, 59.108319931432185 -3.3986541798344803, 59.164107276581774 -3.1121979531509023 M59.164107276581774 -3.1121979531509023 C59.20697154952565 -2.779751116706305, 59.24983582246953 -2.4473042802617084, 59.32395520250937 -1.872449005199798 M59.164107276581774 -3.1121979531509023 C59.22034824886157 -2.6760040781849725, 59.276589221141364 -2.2398102032190432, 59.32395520250937 -1.872449005199798 M59.32395520250937 -1.872449005199798 C59.34812213116602 -1.496029584178659, 59.372289059822684 -1.1196101631575202, 59.40404371591342 -0.6250057626472757 M59.32395520250937 -1.872449005199798 C59.35464764932206 -1.394389371594983, 59.38534009613475 -0.9163297379901681, 59.40404371591342 -0.6250057626472757 M59.40404371591342 -0.6250057626472757 C59.40404371591342 -0.33304925607172436, 59.40404371591342 -0.04109274949617303, 59.40404371591342 0.625005762647271 M59.40404371591342 -0.6250057626472757 C59.40404371591342 -0.26476349579002284, 59.40404371591342 0.09547877106723002, 59.40404371591342 0.625005762647271 M59.40404371591342 0.625005762647271 C59.383381703975296 0.9468332766593972, 59.36271969203717 1.2686607906715235, 59.32395520250937 1.8724490051997846 M59.40404371591342 0.625005762647271 C59.38229692109951 0.9637296455706554, 59.36055012628561 1.3024535284940397, 59.32395520250937 1.8724490051997846 M59.32395520250937 1.8724490051997846 C59.27421211516333 2.2582465677719927, 59.22446902781729 2.644044130344201, 59.164107276581774 3.1121979531508885 M59.32395520250937 1.8724490051997846 C59.278658277377524 2.2237630116327742, 59.23336135224567 2.575077018065764, 59.164107276581774 3.1121979531508885 M59.164107276581774 3.1121979531508885 C59.11143145890164 3.382677143900376, 59.0587556412215 3.6531563346498634, 58.92515678754556 4.339158212148129 M59.164107276581774 3.1121979531508885 C59.0778572244274 3.555073742008649, 58.99160717227302 3.997949530866409, 58.92515678754556 4.339158212148129 M58.92515678754556 4.339158212148129 C58.85253713306639 4.616088428234548, 58.77991747858722 4.893018644320966, 58.60808563421489 5.548287939305125 M58.92515678754556 4.339158212148129 C58.83742334718511 4.673723844156121, 58.749689906824656 5.008289476164113, 58.60808563421489 5.548287939305125 M58.60808563421489 5.548287939305125 C58.48277099993253 5.925715651588079, 58.357456365650165 6.303143363871032, 58.214196729970325 6.734618561215495 M58.60808563421489 5.548287939305125 C58.466049340523654 5.976078625492994, 58.32401304683241 6.403869311680862, 58.214196729970325 6.734618561215495 M58.214196729970325 6.734618561215495 C58.08466715762556 7.054559109190974, 57.9551375852808 7.374499657166453, 57.74510864880834 7.893275190886679 M58.214196729970325 6.734618561215495 C58.10914679277263 6.994093937096187, 58.00409685557492 7.253569312976879, 57.74510864880834 7.893275190886679 M57.74510864880834 7.893275190886679 C57.563916960412136 8.269523608722466, 57.38272527201593 8.645772026558252, 57.202748974273504 9.019496659696284 M57.74510864880834 7.893275190886679 C57.556901855726714 8.284090623700937, 57.36869506264509 8.674906056515196, 57.202748974273504 9.019496659696284 M57.202748974273504 9.019496659696284 C56.960778648465734 9.44913947532039, 56.718808322657964 9.878782290944496, 56.58934637860425 10.108655082055236 M57.202748974273504 9.019496659696284 C57.04201104160498 9.304903135629896, 56.88127310893645 9.590309611563507, 56.58934637860425 10.108655082055236 M56.58934637860425 10.108655082055236 C56.376197751302364 10.436108612011497, 56.16304912400048 10.763562141967757, 55.90742146464064 11.156274872382301 M56.58934637860425 10.108655082055236 C56.31977206731928 10.522793615027203, 56.05019775603431 10.936932147999167, 55.90742146464064 11.156274872382301 M55.90742146464064 11.156274872382301 C55.66906809655833 11.475646671174069, 55.430714728476005 11.795018469965834, 55.15977640812658 12.158051136245302 M55.90742146464064 11.156274872382301 C55.752537320311745 11.363805515547195, 55.597653175982856 11.571336158712091, 55.15977640812658 12.158051136245302 M55.15977640812658 12.158051136245302 C54.96972747213418 12.38129343055278, 54.77967853614179 12.604535724860261, 54.34948344296866 13.10986736009567 M55.15977640812658 12.158051136245302 C54.89434786805105 12.469838602729812, 54.62891932797552 12.781626069214322, 54.34948344296866 13.10986736009567 M54.34948344296866 13.10986736009567 C54.02642876373535 13.443447839686488, 53.70337408450205 13.777028319277305, 53.47987223676799 14.007812326905684 M54.34948344296866 13.10986736009567 C54.08696568843892 13.380938494756107, 53.824447933909184 13.652009629416543, 53.47987223676799 14.007812326905684 M53.47987223676799 14.007812326905684 C53.232372665435406 14.232584889110125, 52.984873094102824 14.457357451314566, 52.55451620850189 14.848196188198111 M53.47987223676799 14.007812326905684 C53.26442150725853 14.203478978932251, 53.04897077774907 14.399145630958817, 52.55451620850189 14.848196188198111 M52.55451620850189 14.848196188198111 C52.18371583357963 15.143899619786229, 51.81291545865737 15.439603051374347, 51.57721784457871 15.627565626425152 M52.55451620850189 14.848196188198111 C52.22138913128976 15.113856167390956, 51.888262054077636 15.3795161465838, 51.57721784457871 15.627565626425152 M51.57721784457871 15.627565626425152 C51.32029830264902 15.806781577007587, 51.06337876071933 15.985997527590023, 50.55199307360571 16.34271804539089 M51.57721784457871 15.627565626425152 C51.3596260243527 15.779348260816734, 51.142034204126695 15.931130895208316, 50.55199307360571 16.34271804539089 M50.55199307360571 16.34271804539089 C50.18874060955854 16.56292382380471, 49.82548814551137 16.783129602218526, 49.48305476407678 16.990714730406093 M50.55199307360571 16.34271804539089 C50.16555444988206 16.57697941005759, 49.77911582615841 16.81124077472429, 49.48305476407678 16.990714730406093 M49.48305476407678 16.990714730406093 C49.21239196483896 17.131919339400667, 48.94172916560114 17.273123948395245, 48.37479541279239 17.56889292409717 M49.48305476407678 16.990714730406093 C49.12335128260705 17.178371806287778, 48.76364780113732 17.366028882169463, 48.37479541279239 17.56889292409717 M48.37479541279239 17.56889292409717 C48.001883485432515 17.733969972300095, 47.62897155807265 17.89904702050302, 47.231769095147804 18.07487676824742 M48.37479541279239 17.56889292409717 C48.10568834206287 17.688018641531503, 47.836581271333344 17.80714435896584, 47.231769095147804 18.07487676824742 M47.231769095147804 18.07487676824742 C46.90800263438711 18.19402581867171, 46.584236173626415 18.313174869096002, 46.05867275146062 18.506587066708033 M47.231769095147804 18.07487676824742 C46.884577137349055 18.202646618124636, 46.53738517955031 18.33041646800185, 46.05867275146062 18.506587066708033 M46.05867275146062 18.506587066708033 C45.63203680444611 18.633210376324158, 45.20540085743159 18.75983368594028, 44.86032688623541 18.86224982926107 M46.05867275146062 18.506587066708033 C45.73746215549601 18.601920685521506, 45.4162515595314 18.697254304334976, 44.86032688623541 18.86224982926107 M44.86032688623541 18.86224982926107 C44.55200201540757 18.93262296901971, 44.24367714457972 19.00299610877835, 43.641655759676766 19.140403561325773 M44.86032688623541 18.86224982926107 C44.40601164508744 18.965944318369083, 43.95169640393946 19.069638807477094, 43.641655759676766 19.140403561325773 M43.641655759676766 19.140403561325773 C43.31593488369294 19.19306358655172, 42.990214007709106 19.245723611777667, 42.40766715284788 19.3399052695533 M43.641655759676766 19.140403561325773 C43.14925496472968 19.220011103227623, 42.65685416978259 19.29961864512947, 42.40766715284788 19.3399052695533 M42.40766715284788 19.3399052695533 C41.94628709311179 19.384414049025334, 41.484907033375706 19.42892282849737, 41.1634317896239 19.45993515863156 M42.40766715284788 19.3399052695533 C41.9493713155702 19.38411651779409, 41.49107547829251 19.428327766034887, 41.1634317896239 19.45993515863156 M41.1634317896239 19.45993515863156 C40.808600862516286 19.4713138958274, 40.453769935408666 19.482692633023238, 39.91406250000001 19.5 M41.1634317896239 19.45993515863156 C40.851570328261545 19.46993594869594, 40.53970886689918 19.47993673876032, 39.91406250000001 19.5 M39.91406250000001 19.5 C39.91406250000001 19.5, 39.9140625 19.5, 39.9140625 19.5 M39.91406250000001 19.5 C39.91406250000001 19.5, 39.91406250000001 19.5, 39.9140625 19.5 M39.9140625 19.5 C23.115235023905722 19.5, 6.316407547811444 19.5, -39.91406249999999 19.5 M39.9140625 19.5 C21.13534839971865 19.5, 2.356634299437303 19.5, -39.91406249999999 19.5 M-39.91406249999999 19.5 C-40.21794036789764 19.49025522823891, -40.521818235795294 19.48051045647782, -41.16343178962389 19.45993515863156 M-39.91406249999999 19.5 C-40.39462836198316 19.484589188170904, -40.875194223966325 19.469178376341812, -41.16343178962389 19.45993515863156 M-41.16343178962389 19.45993515863156 C-41.41262193069348 19.435896085417568, -41.66181207176307 19.411857012203576, -42.40766715284787 19.3399052695533 M-41.16343178962389 19.45993515863156 C-41.56746646106826 19.420958419800108, -41.97150113251263 19.381981680968654, -42.40766715284787 19.3399052695533 M-42.40766715284787 19.3399052695533 C-42.73703502443833 19.286655626360545, -43.066402896028784 19.233405983167792, -43.64165575967676 19.140403561325773 M-42.40766715284787 19.3399052695533 C-42.89868354517682 19.260521547130548, -43.38969993750577 19.181137824707797, -43.64165575967676 19.140403561325773 M-43.64165575967676 19.140403561325773 C-44.02174721705576 19.053650166507573, -44.40183867443477 18.966896771689374, -44.860326886235384 18.862249829261074 M-43.64165575967676 19.140403561325773 C-44.0474224909235 19.04778995279408, -44.45318922217025 18.95517634426239, -44.860326886235384 18.862249829261074 M-44.860326886235384 18.862249829261074 C-45.2878897320427 18.73535142094864, -45.71545257785001 18.608453012636208, -46.05867275146059 18.506587066708043 M-44.860326886235384 18.862249829261074 C-45.11603417466209 18.786357248290976, -45.37174146308879 18.710464667320878, -46.05867275146059 18.506587066708043 M-46.05867275146059 18.506587066708043 C-46.44880378538668 18.363015239891496, -46.838934819312776 18.219443413074952, -47.2317690951478 18.074876768247425 M-46.05867275146059 18.506587066708043 C-46.4457997383753 18.364120756960794, -46.83292672529 18.22165444721354, -47.2317690951478 18.074876768247425 M-47.2317690951478 18.074876768247425 C-47.640315044873695 17.894025595388776, -48.0488609945996 17.713174422530127, -48.37479541279238 17.568892924097174 M-47.2317690951478 18.074876768247425 C-47.604120977859836 17.91004763519696, -47.97647286057187 17.7452185021465, -48.37479541279238 17.568892924097174 M-48.37479541279238 17.568892924097174 C-48.68863993860408 17.405160436008227, -49.00248446441577 17.241427947919277, -49.48305476407678 16.990714730406097 M-48.37479541279238 17.568892924097174 C-48.79981084435699 17.347162645685295, -49.2248262759216 17.12543236727341, -49.48305476407678 16.990714730406097 M-49.48305476407678 16.990714730406097 C-49.81805536248609 16.787635398968337, -50.1530559608954 16.584556067530578, -50.551993073605686 16.3427180453909 M-49.48305476407678 16.990714730406097 C-49.897528992923874 16.73945801715806, -50.31200322177096 16.488201303910028, -50.551993073605686 16.3427180453909 M-50.551993073605686 16.3427180453909 C-50.83531366503015 16.145085865563924, -51.11863425645461 15.94745368573695, -51.57721784457871 15.627565626425156 M-50.551993073605686 16.3427180453909 C-50.89357789925248 16.10444325798848, -51.23516272489926 15.866168470586059, -51.57721784457871 15.627565626425156 M-51.57721784457871 15.627565626425156 C-51.95213230855697 15.328581318295383, -52.327046772535226 15.02959701016561, -52.554516208501866 14.848196188198125 M-51.57721784457871 15.627565626425156 C-51.94133795185537 15.337189530515017, -52.30545805913202 15.046813434604879, -52.554516208501866 14.848196188198125 M-52.554516208501866 14.848196188198125 C-52.89685061507999 14.537297137815926, -53.239185021658116 14.226398087433727, -53.479872236767974 14.007812326905697 M-52.554516208501866 14.848196188198125 C-52.91026456439847 14.525114943958537, -53.26601292029507 14.20203369971895, -53.479872236767974 14.007812326905697 M-53.479872236767974 14.007812326905697 C-53.75200048867316 13.7268175646686, -54.024128740578355 13.445822802431504, -54.349483442968655 13.109867360095677 M-53.479872236767974 14.007812326905697 C-53.827411391232694 13.648949616425647, -54.174950545697406 13.290086905945595, -54.349483442968655 13.109867360095677 M-54.349483442968655 13.109867360095677 C-54.527959553129065 12.900219165522891, -54.70643566328948 12.690570970950104, -55.159776408126575 12.158051136245307 M-54.349483442968655 13.109867360095677 C-54.57993118946231 12.839170324215985, -54.81037893595596 12.568473288336293, -55.159776408126575 12.158051136245307 M-55.159776408126575 12.158051136245307 C-55.31815667197636 11.94583601142546, -55.47653693582615 11.733620886605612, -55.907421464640635 11.156274872382316 M-55.159776408126575 12.158051136245307 C-55.324095241985454 11.937878868628133, -55.48841407584433 11.717706601010958, -55.907421464640635 11.156274872382316 M-55.907421464640635 11.156274872382316 C-56.08699624518799 10.880399786881206, -56.266571025735345 10.604524701380097, -56.58934637860425 10.108655082055249 M-55.907421464640635 11.156274872382316 C-56.116218553894534 10.835506473419336, -56.32501564314844 10.514738074456357, -56.58934637860425 10.108655082055249 M-56.58934637860425 10.108655082055249 C-56.82581982102616 9.688772539502533, -57.062293263448076 9.268889996949818, -57.202748974273504 9.019496659696289 M-56.58934637860425 10.108655082055249 C-56.80761043403654 9.721105150002984, -57.02587448946883 9.333555217950721, -57.202748974273504 9.019496659696289 M-57.202748974273504 9.019496659696289 C-57.35738109146584 8.698399759749119, -57.512013208658175 8.37730285980195, -57.74510864880834 7.893275190886686 M-57.202748974273504 9.019496659696289 C-57.4050197182929 8.59947713183941, -57.60729046231229 8.179457603982533, -57.74510864880834 7.893275190886686 M-57.74510864880834 7.893275190886686 C-57.90906791848889 7.488292624838903, -58.07302718816943 7.083310058791119, -58.214196729970325 6.73461856121551 M-57.74510864880834 7.893275190886686 C-57.888973297984265 7.537926725988377, -58.032837947160196 7.182578261090067, -58.214196729970325 6.73461856121551 M-58.214196729970325 6.73461856121551 C-58.32127192352128 6.41212513835531, -58.428347117072235 6.08963171549511, -58.60808563421488 5.5482879393051325 M-58.214196729970325 6.73461856121551 C-58.30570960954787 6.458996348525215, -58.39722248912542 6.18337413583492, -58.60808563421488 5.5482879393051325 M-58.60808563421488 5.5482879393051325 C-58.73115703742777 5.078963339370835, -58.854228440640654 4.609638739436538, -58.92515678754556 4.339158212148136 M-58.60808563421488 5.5482879393051325 C-58.71560870154373 5.1382558827880676, -58.82313176887258 4.7282238262710035, -58.92515678754556 4.339158212148136 M-58.92515678754556 4.339158212148136 C-58.98612009485119 4.026124513733283, -59.04708340215682 3.7130908153184294, -59.164107276581774 3.112197953150904 M-58.92515678754556 4.339158212148136 C-58.98783008174273 4.017344092451084, -59.0505033759399 3.695529972754032, -59.164107276581774 3.112197953150904 M-59.164107276581774 3.112197953150904 C-59.21580249799568 2.7112600242407687, -59.26749771940959 2.310322095330633, -59.32395520250937 1.872449005199809 M-59.164107276581774 3.112197953150904 C-59.21315402629195 2.731801047774972, -59.26220077600214 2.3514041423990397, -59.32395520250937 1.872449005199809 M-59.32395520250937 1.872449005199809 C-59.34194115307439 1.592303307151674, -59.3599271036394 1.3121576091035387, -59.40404371591342 0.6250057626472781 M-59.32395520250937 1.872449005199809 C-59.35156289615143 1.4424368921954953, -59.37917058979349 1.0124247791911816, -59.40404371591342 0.6250057626472781 M-59.40404371591342 0.6250057626472781 C-59.40404371591342 0.31574228791153885, -59.40404371591342 0.006478813175799569, -59.40404371591342 -0.6250057626472687 M-59.40404371591342 0.6250057626472781 C-59.40404371591342 0.2016638535198368, -59.40404371591342 -0.22167805560760456, -59.40404371591342 -0.6250057626472687 M-59.40404371591342 -0.6250057626472687 C-59.37488805065681 -1.0791287830483363, -59.345732385400204 -1.5332518034494038, -59.32395520250937 -1.8724490051997822 M-59.40404371591342 -0.6250057626472687 C-59.37714858215095 -1.0439191803588461, -59.35025344838849 -1.4628325980704235, -59.32395520250937 -1.8724490051997822 M-59.32395520250937 -1.8724490051997822 C-59.26046994283487 -2.364828142652676, -59.19698468316037 -2.85720728010557, -59.164107276581774 -3.112197953150895 M-59.32395520250937 -1.8724490051997822 C-59.27100791167201 -2.283097737309152, -59.21806062083465 -2.6937464694185227, -59.164107276581774 -3.112197953150895 M-59.164107276581774 -3.112197953150895 C-59.08741964310204 -3.5059727431322627, -59.0107320096223 -3.8997475331136306, -58.92515678754556 -4.339158212148126 M-59.164107276581774 -3.112197953150895 C-59.08601251581972 -3.5131980443305286, -59.00791775505766 -3.914198135510162, -58.92515678754556 -4.339158212148126 M-58.92515678754556 -4.339158212148126 C-58.836513814134584 -4.677192287871881, -58.74787084072361 -5.0152263635956364, -58.60808563421489 -5.548287939305123 M-58.92515678754556 -4.339158212148126 C-58.85470032981999 -4.607839221477652, -58.78424387209443 -4.876520230807178, -58.60808563421489 -5.548287939305123 M-58.60808563421489 -5.548287939305123 C-58.47731743563521 -5.94214091834414, -58.34654923705552 -6.335993897383156, -58.21419672997033 -6.734618561215485 M-58.60808563421489 -5.548287939305123 C-58.47635501120551 -5.945039587384865, -58.34462438819614 -6.341791235464607, -58.21419672997033 -6.734618561215485 M-58.21419672997033 -6.734618561215485 C-58.07401906123657 -7.080860113138729, -57.933841392502806 -7.427101665061973, -57.74510864880834 -7.893275190886676 M-58.21419672997033 -6.734618561215485 C-58.03397792926285 -7.179762483256434, -57.853759128555375 -7.624906405297384, -57.74510864880834 -7.893275190886676 M-57.74510864880834 -7.893275190886676 C-57.578623461681126 -8.238985244168688, -57.41213827455391 -8.5846952974507, -57.202748974273504 -9.019496659696282 M-57.74510864880834 -7.893275190886676 C-57.54950459305207 -8.299451197920897, -57.35390053729581 -8.705627204955116, -57.202748974273504 -9.019496659696282 M-57.202748974273504 -9.019496659696282 C-56.99646322203556 -9.385777901492258, -56.79017746979762 -9.752059143288232, -56.58934637860425 -10.108655082055243 M-57.202748974273504 -9.019496659696282 C-57.04031378540575 -9.307916785877445, -56.877878596538 -9.59633691205861, -56.58934637860425 -10.108655082055243 M-56.58934637860425 -10.108655082055243 C-56.39290278423792 -10.410445195493052, -56.1964591898716 -10.712235308930861, -55.90742146464064 -11.156274872382308 M-56.58934637860425 -10.108655082055243 C-56.44283579620293 -10.333734680223674, -56.2963252138016 -10.558814278392104, -55.90742146464064 -11.156274872382308 M-55.90742146464064 -11.156274872382308 C-55.726773879083886 -11.398326179694758, -55.54612629352713 -11.640377487007207, -55.15977640812659 -12.158051136245302 M-55.90742146464064 -11.156274872382308 C-55.697462587709374 -11.437600639823023, -55.487503710778114 -11.718926407263737, -55.15977640812659 -12.158051136245302 M-55.15977640812659 -12.158051136245302 C-54.98703942591356 -12.360957824565464, -54.81430244370052 -12.563864512885624, -54.34948344296866 -13.10986736009567 M-55.15977640812659 -12.158051136245302 C-54.839820213555605 -12.533889888411604, -54.51986401898462 -12.909728640577907, -54.34948344296866 -13.10986736009567 M-54.34948344296866 -13.10986736009567 C-54.130486526595355 -13.335999656232328, -53.91148961022204 -13.562131952368984, -53.479872236767996 -14.007812326905677 M-54.34948344296866 -13.10986736009567 C-54.13104198117323 -13.335426103777, -53.9126005193778 -13.560984847458329, -53.479872236767996 -14.007812326905677 M-53.479872236767996 -14.007812326905677 C-53.217733933351084 -14.245879398269478, -52.95559562993417 -14.483946469633281, -52.55451620850189 -14.848196188198107 M-53.479872236767996 -14.007812326905677 C-53.243139681462225 -14.222806570034201, -53.00640712615645 -14.437800813162728, -52.55451620850189 -14.848196188198107 M-52.55451620850189 -14.848196188198107 C-52.220679921105955 -15.114421743639662, -51.88684363371002 -15.380647299081216, -51.57721784457872 -15.627565626425149 M-52.55451620850189 -14.848196188198107 C-52.17214597343154 -15.153126275367418, -51.7897757383612 -15.458056362536729, -51.57721784457872 -15.627565626425149 M-51.57721784457872 -15.627565626425149 C-51.30908055609005 -15.814606591398704, -51.04094326760139 -16.00164755637226, -50.551993073605715 -16.342718045390885 M-51.57721784457872 -15.627565626425149 C-51.26174767868709 -15.847623957667773, -50.94627751279546 -16.067682288910397, -50.551993073605715 -16.342718045390885 M-50.551993073605715 -16.342718045390885 C-50.14512887463359 -16.589361513807216, -49.73826467566147 -16.836004982223546, -49.48305476407679 -16.99071473040609 M-50.551993073605715 -16.342718045390885 C-50.303946907313524 -16.493085089078285, -50.05590074102133 -16.643452132765685, -49.48305476407679 -16.99071473040609 M-49.48305476407679 -16.99071473040609 C-49.13214192863617 -17.17378573188506, -48.78122909319556 -17.35685673336403, -48.37479541279239 -17.56889292409717 M-49.48305476407679 -16.99071473040609 C-49.04085878689276 -17.221408088462955, -48.598662809708735 -17.452101446519823, -48.37479541279239 -17.56889292409717 M-48.37479541279239 -17.56889292409717 C-48.02635924428704 -17.723135279902788, -47.67792307578169 -17.877377635708406, -47.231769095147804 -18.07487676824742 M-48.37479541279239 -17.56889292409717 C-48.14433462131607 -17.670911080107253, -47.91387382983975 -17.77292923611734, -47.231769095147804 -18.07487676824742 M-47.231769095147804 -18.07487676824742 C-46.865003093451826 -18.209850047219295, -46.49823709175585 -18.344823326191168, -46.05867275146062 -18.506587066708033 M-47.231769095147804 -18.07487676824742 C-46.869819571029105 -18.208077538947826, -46.507870046910405 -18.34127830964823, -46.05867275146062 -18.506587066708033 M-46.05867275146062 -18.506587066708033 C-45.61278309373428 -18.638924776598635, -45.166893436007946 -18.77126248648924, -44.86032688623541 -18.862249829261067 M-46.05867275146062 -18.506587066708033 C-45.740501086389386 -18.601018746784025, -45.42232942131815 -18.695450426860017, -44.86032688623541 -18.862249829261067 M-44.86032688623541 -18.862249829261067 C-44.563870363073825 -18.92991409611309, -44.26741383991224 -18.99757836296512, -43.641655759676766 -19.140403561325773 M-44.86032688623541 -18.862249829261067 C-44.499052015253525 -18.944708461023826, -44.13777714427164 -19.027167092786588, -43.641655759676766 -19.140403561325773 M-43.641655759676766 -19.140403561325773 C-43.18804768971419 -19.2137393962942, -42.73443961975161 -19.28707523126263, -42.40766715284788 -19.3399052695533 M-43.641655759676766 -19.140403561325773 C-43.337734977159194 -19.189539116502345, -43.03381419464163 -19.238674671678915, -42.40766715284788 -19.3399052695533 M-42.40766715284788 -19.3399052695533 C-42.070183672649144 -19.372461895004804, -41.73270019245041 -19.405018520456306, -41.1634317896239 -19.45993515863156 M-42.40766715284788 -19.3399052695533 C-42.136157502800394 -19.36609747895525, -41.86464785275292 -19.392289688357202, -41.1634317896239 -19.45993515863156 M-41.1634317896239 -19.45993515863156 C-40.86121365142073 -19.469626706091816, -40.55899551321756 -19.47931825355207, -39.91406250000001 -19.5 M-41.1634317896239 -19.45993515863156 C-40.70926012315012 -19.47449955998385, -40.25508845667635 -19.489063961336146, -39.91406250000001 -19.5 M-39.91406250000001 -19.5 C-39.91406250000001 -19.5, -39.9140625 -19.5, -39.9140625 -19.5 M-39.91406250000001 -19.5 C-39.91406250000001 -19.5, -39.9140625 -19.5, -39.9140625 -19.5" stroke="#9370DB" stroke-width="1.3" fill="none" stroke-dasharray="0 0" style=""/></g><g class="label" style="" transform="translate(-47.0390625, -12)"><rect/><foreignObject width="94.078125" height="24"><div xmlns="http://www.w3.org/1999/xhtml" style="display: table-cell; white-space: nowrap; line-height: 1.5; max-width: 200px; text-align: center;"><span class="nodeLabel"><p>/implement/</p></span></div></foreignObject></g></g></g></g></g></svg>